<svg id="Layer_2" height="512" viewBox="0 0 24 24" width="512" xmlns="http://www.w3.org/2000/svg" xmlns:xlink="http://www.w3.org/1999/xlink" data-name="Layer 2"><linearGradient id="Orange_Yellow" gradientUnits="userSpaceOnUse" x1="3.577" x2="20.158" y1="25.159" y2="3.272"><stop offset="0" stop-color="#fff33b"/><stop offset=".04" stop-color="#fee72e"/><stop offset=".117" stop-color="#fed51b"/><stop offset=".196" stop-color="#fdca10"/><stop offset=".281" stop-color="#fdc70c"/><stop offset=".669" stop-color="#f3903f"/><stop offset=".888" stop-color="#ed683c"/><stop offset="1" stop-color="#e93e3a"/></linearGradient><linearGradient id="Orange_Yellow-2" x1="-.774" x2="15.806" xlink:href="#Orange_Yellow" y1="21.862" y2="-.024"/><linearGradient id="Orange_Yellow-3" x1="2.046" x2="18.627" xlink:href="#Orange_Yellow" y1="23.999" y2="2.113"/><linearGradient id="Orange_Yellow-4" x1="4.588" x2="21.168" xlink:href="#Orange_Yellow" y1="25.924" y2="4.038"/><path d="m19 7a1 1 0 0 0 -1 1v11.191a1.92 1.92 0 0 1 -2.01 1.809h-7.98a1.92 1.92 0 0 1 -2.01-1.809v-11.191a1 1 0 0 0 -2 0v11.191a3.918 3.918 0 0 0 4.01 3.809h7.98a3.918 3.918 0 0 0 4.01-3.809v-11.191a1 1 0 0 0 -1-1z" fill="url(#Orange_Yellow)"/><path d="m20 4h-4v-2a1 1 0 0 0 -1-1h-6a1 1 0 0 0 -1 1v2h-4a1 1 0 0 0 0 2h16a1 1 0 0 0 0-2zm-10 0v-1h4v1z" fill="url(#Orange_Yellow-2)"/><path d="m11 17v-7a1 1 0 0 0 -2 0v7a1 1 0 0 0 2 0z" fill="url(#Orange_Yellow-3)"/><path d="m15 17v-7a1 1 0 0 0 -2 0v7a1 1 0 0 0 2 0z" fill="url(#Orange_Yellow-4)"/></svg>