<svg id="Icon" viewBox="0 0 24 24" xmlns="http://www.w3.org/2000/svg"><path d="m10 16.75c-.414 0-.75-.336-.75-.75v-5c0-.414.336-.75.75-.75s.75.336.75.75v5c0 .414-.336.75-.75.75zm4.75-.75v-5c0-.414-.336-.75-.75-.75s-.75.336-.75.75v5c0 .414.336.75.75.75s.75-.336.75-.75z" fill="#549bff"/><path d="m19 5.25h-3.25v-.25c0-1.517-1.233-2.75-2.75-2.75h-2c-1.517 0-2.75 1.233-2.75 2.75v.25h-3.25c-.414 0-.75.336-.75.75s.336.75.75.75h.25v12.25c0 1.517 1.233 2.75 2.75 2.75h8c1.517 0 2.75-1.233 2.75-2.75v-12.25h.25c.414 0 .75-.336.75-.75s-.336-.75-.75-.75zm-9.25-.25c0-.689.561-1.25 1.25-1.25h2c.689 0 1.25.561 1.25 1.25v.25h-4.5zm7.5 14c0 .689-.561 1.25-1.25 1.25h-8c-.689 0-1.25-.561-1.25-1.25v-12.25h10.5z" fill="#112d55"/></svg>