<svg id="Icon" viewBox="0 0 24 24" xmlns="http://www.w3.org/2000/svg"><path d="m5.459 14.298 4.243 4.243-1.061 1.061-4.243-4.243zm13.435-4.95-4.243-4.243c-.293-.293-.768-.293-1.061 0s-.293.768 0 1.061l4.243 4.243c.146.146.338.22.53.22s.384-.073.53-.22c.293-.293.293-.768 0-1.061z" fill="#549bff"/><path d="m5.36 21.003c-.616 0-1.215-.242-1.669-.694-.638-.64-.857-1.568-.572-2.424l.799-2.398c.232-.696.629-1.338 1.147-1.856l10.647-10.647c1.072-1.071 2.817-1.072 3.889 0l1.414 1.414c1.072 1.072 1.072 2.817 0 3.889l-10.646 10.646c-.519.519-1.161.916-1.856 1.147l-2.398.799c-.249.083-.503.123-.754.123zm12.297-17.323c-.32 0-.641.122-.884.365l-10.646 10.646c-.355.355-.626.794-.785 1.271l-.799 2.398c-.104.313-.024.654.21.888.233.234.575.314.888.209l2.398-.799c.476-.159.916-.43 1.271-.785l10.646-10.646c.487-.487.487-1.281 0-1.768l-1.414-1.414c-.244-.244-.564-.365-.884-.365z" fill="#112d55"/></svg>