<svg height="512" viewBox="0 0 20 20" width="512" xmlns="http://www.w3.org/2000/svg" xmlns:xlink="http://www.w3.org/1999/xlink"><linearGradient id="Orange_Yellow" gradientUnits="userSpaceOnUse" x1="-.964" x2="18.75" y1="20.668" y2="1.487"><stop offset="0" stop-color="#fff33b"/><stop offset=".04" stop-color="#fee72e"/><stop offset=".117" stop-color="#fed51b"/><stop offset=".196" stop-color="#fdca10"/><stop offset=".281" stop-color="#fdc70c"/><stop offset=".669" stop-color="#f3903f"/><stop offset=".888" stop-color="#ed683c"/><stop offset="1" stop-color="#e93e3a"/></linearGradient><linearGradient id="Orange_Yellow-2" x1="-1.012" x2="18.702" xlink:href="#Orange_Yellow" y1="20.619" y2="1.438"/><g id="Layer_2" data-name="Layer 2"><path d="m14.887 19h-9.774a4.118 4.118 0 0 1 -4.113-4.113v-9.774a4.118 4.118 0 0 1 4.113-4.113h6.887a1 1 0 0 1 0 2h-6.887a2.116 2.116 0 0 0 -2.113 2.113v9.774a2.116 2.116 0 0 0 2.113 2.113h9.774a2.116 2.116 0 0 0 2.113-2.113v-6.887a1 1 0 0 1 2 0v6.887a4.118 4.118 0 0 1 -4.113 4.113z" fill="url(#Orange_Yellow)"/><path d="m10 11a1 1 0 0 1 -.707-1.707l7-7a1 1 0 1 1 1.414 1.414l-7 7a1 1 0 0 1 -.707.293z" fill="url(#Orange_Yellow-2)"/></g></svg>