<svg id="Icon" viewBox="0 0 24 24" xmlns="http://www.w3.org/2000/svg"><path d="m20.74 21.75c-.279 0-.542-.156-.671-.415l-1.316-2.634c-1.414-2.828-4.152-4.665-7.263-4.921v2.118c0 .497-.281.934-.733 1.139-.454.204-.967.129-1.34-.198l-6.74-5.898c-.271-.237-.427-.58-.427-.94s.155-.703.427-.94l6.74-5.898c.373-.327.886-.402 1.34-.198.452.205.733.642.733 1.139v2.158c5.555.24 10 4.835 10 10.448v4.292c0 .348-.239.65-.578.729-.057.014-.115.021-.172.021zm-10-9.5c3.911 0 7.435 2.131 9.25 5.577v-1.119c0-4.939-4.019-8.958-8.958-8.958h-.292c-.414 0-.75-.336-.75-.75v-2.347l-6.11 5.347 6.11 5.347v-2.347c0-.414.336-.75.75-.75zm-7.075-2.062s0 0 0 0z" fill="#112d55"/></svg>