<svg height="512" transform="rotate(180)" viewBox="0 0 32 32" width="512" xmlns="http://www.w3.org/2000/svg" xmlns:xlink="http://www.w3.org/1999/xlink"><linearGradient id="Orange_Yellow" gradientUnits="userSpaceOnUse" x1="5.714" x2="24.305" y1="32.782" y2="2.45"><stop offset="0" stop-color="#fff33b"/><stop offset=".04" stop-color="#fee72e"/><stop offset=".117" stop-color="#fed51b"/><stop offset=".196" stop-color="#fdca10"/><stop offset=".281" stop-color="#fdc70c"/><stop offset=".669" stop-color="#f3903f"/><stop offset=".888" stop-color="#ed683c"/><stop offset="1" stop-color="#e93e3a"/></linearGradient><linearGradient id="Orange_Yellow-2" x1="5.642" x2="24.233" xlink:href="#Orange_Yellow" y1="32.738" y2="2.406"/><g id="right-5" data-name="right"><path d="m16 1a15 15 0 1 0 15 15 15.017 15.017 0 0 0 -15-15zm0 28a13 13 0 1 1 13-13 13.015 13.015 0 0 1 -13 13z" fill="url(#Orange_Yellow)"/><path d="m19 10.586-1.414 1.414 3 3h-12.586v2h12.586l-3 3 1.414 1.414 4-4 1.414-1.414-1.414-1.414z" fill="url(#Orange_Yellow-2)"/></g></svg>