<svg id="Layer_2" height="512" viewBox="0 0 33 33" width="512" xmlns="http://www.w3.org/2000/svg" xmlns:xlink="http://www.w3.org/1999/xlink" data-name="Layer 2"><linearGradient id="Orange_Yellow" gradientUnits="userSpaceOnUse" x1="1.891" x2="28.433" y1="26.906" y2="2.287"><stop offset="0" stop-color="#fff33b"/><stop offset=".04" stop-color="#fee72e"/><stop offset=".117" stop-color="#fed51b"/><stop offset=".196" stop-color="#fdca10"/><stop offset=".281" stop-color="#fdc70c"/><stop offset=".669" stop-color="#f3903f"/><stop offset=".888" stop-color="#ed683c"/><stop offset="1" stop-color="#e93e3a"/></linearGradient><linearGradient id="Orange_Yellow-2" x1="4.384" x2="30.926" xlink:href="#Orange_Yellow" y1="29.594" y2="4.974"/><linearGradient id="Orange_Yellow-3" x1="6.876" x2="33.419" xlink:href="#Orange_Yellow" y1="32.281" y2="7.662"/><linearGradient id="Orange_Yellow-4" x1="-2.734" x2="23.809" xlink:href="#Orange_Yellow" y1="21.92" y2="-2.699"/><linearGradient id="Orange_Yellow-5" x1="-.241" x2="26.302" xlink:href="#Orange_Yellow" y1="24.608" y2="-.012"/><linearGradient id="Orange_Yellow-6" x1="2.252" x2="28.794" xlink:href="#Orange_Yellow" y1="27.295" y2="2.676"/><linearGradient id="Orange_Yellow-7" x1="3.459" x2="30.001" xlink:href="#Orange_Yellow" y1="28.596" y2="3.977"/><path d="m12.5 12.5h12a1 1 0 0 0 0-2h-12a1 1 0 0 0 0 2z" fill="url(#Orange_Yellow)"/><path d="m24.5 15.5h-12a1 1 0 0 0 0 2h12a1 1 0 0 0 0-2z" fill="url(#Orange_Yellow-2)"/><path d="m24.5 20.5h-12a1 1 0 0 0 0 2h12a1 1 0 0 0 0-2z" fill="url(#Orange_Yellow-3)"/><circle cx="8.5" cy="11.5" fill="url(#Orange_Yellow-4)" r="1"/><circle cx="8.5" cy="16.5" fill="url(#Orange_Yellow-5)" r="1"/><circle cx="8.5" cy="21.5" fill="url(#Orange_Yellow-6)" r="1"/><path d="m16.5 31.5a15 15 0 1 1 15-15 15.017 15.017 0 0 1 -15 15zm0-28a13 13 0 1 0 13 13 13.015 13.015 0 0 0 -13-13z" fill="url(#Orange_Yellow-7)"/></svg>