<svg id="Icon" viewBox="0 0 24 24" xmlns="http://www.w3.org/2000/svg"><path d="m3.25 7c0-.414.336-.75.75-.75h1c.414 0 .75.336.75.75s-.336.75-.75.75h-1c-.414 0-.75-.336-.75-.75zm1.75 4.25h-1c-.414 0-.75.336-.75.75s.336.75.75.75h1c.414 0 .75-.336.75-.75s-.336-.75-.75-.75zm0 5h-1c-.414 0-.75.336-.75.75s.336.75.75.75h1c.414 0 .75-.336.75-.75s-.336-.75-.75-.75z" fill="#549bff"/><path d="m7.25 7c0-.414.336-.75.75-.75h11c.414 0 .75.336.75.75s-.336.75-.75.75h-11c-.414 0-.75-.336-.75-.75zm11.75 4.25h-11c-.414 0-.75.336-.75.75s.336.75.75.75h11c.414 0 .75-.336.75-.75s-.336-.75-.75-.75zm0 5h-11c-.414 0-.75.336-.75.75s.336.75.75.75h11c.414 0 .75-.336.75-.75s-.336-.75-.75-.75z" fill="#112d55"/></svg>