<svg version="1.1" id="Layer_1" xmlns="http://www.w3.org/2000/svg" xmlns:xlink="http://www.w3.org/1999/xlink" x="0px" y="0px"
	 width="100%" viewBox="0 0 1735 1735" enable-background="new 0 0 1735 1735" xml:space="preserve">
<path fill="#5142D9" opacity="1.000000" stroke="none" 
	d="
M1736.000000,831.000000 
	C1736.000000,853.687561 1736.000000,876.375122 1735.686035,899.815125 
	C1735.190918,905.558838 1735.106812,910.555908 1734.813477,915.540588 
	C1731.785278,966.989990 1724.779785,1017.868164 1712.921631,1068.054199 
	C1698.762573,1127.978394 1678.502197,1185.772705 1652.017456,1241.341553 
	C1632.722290,1281.825562 1610.341431,1320.560547 1584.993774,1357.590210 
	C1552.218506,1405.470459 1514.985718,1449.527100 1473.400269,1490.001465 
	C1444.970581,1517.671997 1414.901245,1543.323853 1383.018921,1566.911133 
	C1345.627563,1594.573975 1306.244141,1618.995850 1264.899292,1640.278442 
	C1218.460693,1664.183228 1170.254272,1683.719849 1120.262207,1698.846680 
	C1055.885864,1718.325928 990.137329,1730.139038 922.996277,1734.225220 
	C917.315857,1734.570923 911.664734,1735.397095 906.000000,1736.000000 
	C883.312439,1736.000000 860.624878,1736.000000 837.190796,1735.679932 
	C831.619812,1735.188354 826.789978,1735.109741 821.971619,1734.831421 
	C770.361267,1731.850098 719.332581,1724.813110 668.993469,1712.923706 
	C608.255066,1698.578125 549.733765,1677.941650 493.471741,1650.957031 
	C462.938568,1636.312500 433.371124,1619.892090 404.762451,1601.752319 
	C367.697601,1578.250732 332.534332,1552.167358 299.472992,1523.332886 
	C272.868073,1500.129272 247.821930,1475.288818 224.090668,1449.126709 
	C187.869263,1409.195190 155.809265,1366.143066 127.707016,1320.177612 
	C102.610687,1279.128906 81.142464,1236.224121 63.212452,1191.548096 
	C44.135895,1144.015259 29.328680,1095.196167 19.003683,1045.049561 
	C10.642966,1004.442932 4.992684,963.449524 2.761232,922.013672 
	C2.490809,916.992065 1.602138,912.003723 1.000000,907.000000 
	C1.000000,883.645752 1.000000,860.291565 1.316243,836.187988 
	C1.805407,831.113281 1.915372,826.784241 2.160881,822.463013 
	C4.960659,773.182861 11.442877,724.412903 22.411772,676.261963 
	C34.373596,623.752197 51.036842,572.801270 72.445358,523.367737 
	C87.243629,489.197571 104.106453,456.085938 123.243660,424.189453 
	C150.537247,378.698547 181.556534,335.870392 216.759048,296.103149 
	C242.824783,266.657471 270.537384,238.864044 300.197937,213.079193 
	C332.885956,184.662430 367.584747,158.896347 404.174347,135.648270 
	C439.887573,112.957024 477.081482,93.058167 515.651550,75.765060 
	C551.539246,59.674629 588.458069,46.303646 626.249634,35.344498 
	C687.465942,17.592424 749.864441,6.737630 813.479248,2.803164 
	C819.334290,2.441042 825.160461,1.612151 831.000000,1.000002 
	C853.687561,1.000000 876.375122,1.000000 899.810608,1.318731 
	C908.203552,2.033257 915.850708,2.390869 923.493164,2.831232 
	C963.615662,5.143116 1003.365295,10.420313 1042.714111,18.504272 
	C1124.169312,35.238674 1201.679810,63.009666 1275.132812,102.073021 
	C1311.335205,121.325989 1346.009766,143.008896 1379.117065,167.168365 
	C1421.258423,197.920105 1460.127808,232.365463 1496.220581,270.081177 
	C1535.713989,311.350800 1570.628296,356.079742 1601.301270,404.216522 
	C1624.751221,441.017883 1645.094238,479.439117 1662.742432,519.336853 
	C1678.058716,553.963318 1690.846069,589.476562 1701.469116,625.805847 
	C1719.455444,687.316223 1730.295898,750.049316 1734.212769,814.002686 
	C1734.560669,819.683655 1735.392822,825.334900 1736.000000,831.000000 
M803.486816,1002.737610 
	C802.856934,1002.617432 802.226990,1002.497253 801.874817,1002.277588 
	C801.874817,1002.277588 801.971802,1002.556213 801.318848,1001.984741 
	C799.225830,1001.645081 797.132935,1001.008972 795.039856,1001.008179 
	C674.309692,1000.961792 553.579529,1000.963074 432.849396,1001.013794 
	C430.926392,1001.014587 429.003632,1001.683899 426.492340,1002.445374 
	C418.808685,1004.582947 415.206421,1009.052063 415.038025,1017.201721 
	C414.876648,1025.009888 414.984558,1032.823853 415.005005,1040.635376 
	C415.031769,1050.863647 417.725006,1054.678833 427.414948,1058.465454 
	C429.369690,1058.662598 431.324127,1059.027344 433.279236,1059.031006 
	C455.597687,1059.072632 477.916260,1059.060181 500.234802,1059.060791 
	C597.003967,1059.063843 693.773132,1059.079346 790.542236,1059.015747 
	C793.941589,1059.013428 797.340454,1058.223999 801.297363,1057.355225 
	C808.555176,1054.979492 811.835327,1050.557251 811.962952,1042.495361 
	C812.089111,1034.526855 811.907288,1026.553467 812.020996,1018.584534 
	C812.104126,1012.754517 810.251282,1007.893005 805.321228,1003.777466 
	C804.845520,1003.527649 804.369812,1003.277832 803.995117,1002.994263 
	C803.995117,1002.994263 804.029175,1003.095276 803.486816,1002.737610 
M419.611542,1349.917480 
	C420.160431,1350.207153 420.709290,1350.496826 421.187317,1350.796997 
	C421.187317,1350.796997 421.198151,1350.726074 421.416992,1351.428833 
	C424.967072,1352.287109 428.516113,1353.890259 432.067413,1353.895142 
	C529.794250,1354.029541 627.521362,1354.001221 725.248413,1354.000000 
	C749.055847,1353.999634 772.863647,1354.058960 796.670166,1353.909302 
	C799.117859,1353.893921 801.557678,1352.628662 803.988403,1352.007690 
	C803.988403,1352.007690 803.926147,1351.986694 804.478516,1351.767456 
	C804.923706,1351.397461 805.368896,1351.027466 806.209778,1350.123413 
	C810.516602,1347.045410 811.945496,1342.619995 811.973511,1337.595459 
	C812.016968,1329.804321 812.034790,1322.012695 811.983032,1314.221802 
	C811.924194,1305.369507 809.077026,1301.351685 800.144470,1297.692871 
	C798.352722,1297.440918 796.561096,1296.968750 794.769287,1296.968384 
	C674.157410,1296.942383 553.545532,1296.949585 432.933716,1297.005859 
	C431.006195,1297.006714 429.079041,1297.651123 426.535706,1298.390747 
	C418.828766,1300.495728 415.194855,1304.981689 415.037415,1313.070923 
	C414.888733,1320.709229 414.787537,1328.361328 415.095032,1335.989990 
	C415.238556,1339.550659 416.396271,1343.070557 417.135223,1347.343994 
	C417.936371,1348.070679 418.737518,1348.797485 419.321686,1349.604370 
	C419.321686,1349.604370 419.245667,1349.385864 419.611542,1349.917480 
M1052.260986,1201.499146 
	C1050.287842,1201.316162 1048.315186,1200.978394 1046.341675,1200.974121 
	C1027.706299,1200.933594 1009.070923,1200.920044 990.435669,1200.957642 
	C968.475098,1201.001709 946.514587,1201.104126 923.882202,1201.344116 
	C922.187134,1200.733032 920.492004,1200.121948 918.545044,1199.420166 
	C898.242432,1246.348999 878.007812,1293.120728 857.425354,1340.696655 
	C862.399414,1342.302856 866.702393,1343.692383 871.943542,1345.096313 
	C891.344238,1345.084229 910.745178,1345.106934 930.145447,1345.012817 
	C932.395569,1345.001831 934.642517,1344.341797 937.014709,1343.193481 
	C937.014709,1341.606812 937.014709,1340.020142 937.014709,1337.775146 
	C939.220154,1339.333862 940.754089,1340.417969 942.427063,1341.600342 
	C981.295166,1298.943604 1019.915466,1256.558838 1057.667114,1215.127319 
	C1055.904663,1210.151367 1054.443237,1206.025024 1052.260986,1201.499146 
M800.203979,705.732849 
	C798.415222,705.467834 796.626526,704.971130 794.837708,704.970703 
	C674.177795,704.941895 553.517883,704.948059 432.858032,705.005493 
	C430.933624,705.006409 429.009552,705.679749 426.496063,706.443481 
	C418.833099,708.573181 415.216736,713.050720 415.041901,721.188721 
	C414.874268,728.991272 414.987213,736.800232 415.006134,744.606323 
	C415.030945,754.850220 417.726471,758.688110 427.806915,762.432190 
	C429.773193,762.638550 431.739471,763.025085 433.705780,763.025513 
	C553.383423,763.052124 673.061035,763.055786 792.738708,762.989990 
	C795.463257,762.988525 798.187439,762.166992 801.458557,761.307129 
	C808.750732,758.823669 811.851685,754.528992 811.965210,746.320679 
	C812.075500,738.348083 812.036560,730.372620 811.982971,722.398926 
	C811.923401,713.542786 809.020081,709.398865 800.203979,705.732849 
M1456.263306,375.569489 
	C1454.628540,375.361206 1452.993652,374.971313 1451.358887,374.970795 
	C1381.141968,374.949158 1310.925049,374.955017 1240.708130,375.007477 
	C1238.759521,375.008942 1236.811401,375.555725 1234.252197,376.332306 
	C1234.047852,378.374786 1233.843506,380.417297 1233.632080,382.530182 
	C1231.332031,381.924286 1229.447266,381.427765 1227.342651,380.873322 
	C1128.370239,638.002563 1029.486938,894.900452 930.322083,1152.529907 
	C937.333374,1152.740845 937.464355,1157.185791 937.773499,1162.375977 
	C939.734985,1162.600830 941.696411,1163.021240 943.658020,1163.022217 
	C1013.178040,1163.057983 1082.697998,1163.062988 1152.218018,1163.018799 
	C1154.499756,1163.017334 1156.781250,1162.459351 1159.780640,1161.699341 
	C1160.011597,1158.654907 1160.242676,1155.610352 1160.492920,1152.314087 
	C1162.745361,1152.875977 1164.602661,1153.339233 1166.679443,1153.857300 
	C1265.689331,896.636475 1364.587158,639.706726 1463.553223,382.599548 
	C1460.223999,381.015381 1456.145264,380.730011 1456.263306,375.569489 
M309.336945,747.049255 
	C315.991333,758.536560 328.022888,764.083191 340.104218,761.233276 
	C352.361206,758.341919 361.089569,748.142639 361.886597,735.780029 
	C362.631927,724.219055 356.005676,713.266785 345.365997,708.473694 
	C334.979553,703.794678 322.542450,706.050537 314.356018,714.098328 
	C305.866638,722.443970 303.880829,734.404602 309.336945,747.049255 
M361.690857,1033.946411 
	C361.778259,1032.451660 362.011383,1030.948853 361.929932,1029.463257 
	C361.288940,1017.775269 355.772186,1009.070557 345.062836,1004.421570 
	C334.333679,999.764221 324.021515,1001.488342 315.337921,1009.370361 
	C306.842346,1017.081787 304.115784,1026.876465 307.287750,1037.988159 
	C310.721100,1050.015381 322.189789,1058.250366 334.656647,1057.945679 
	C347.905304,1057.621826 358.046265,1048.892212 361.690857,1033.946411 
M349.060547,1348.660278 
	C349.723450,1348.157715 350.397736,1347.669312 351.047699,1347.150635 
	C360.244476,1339.810669 363.928406,1329.043823 360.930206,1318.284424 
	C357.929962,1307.517700 348.509033,1299.543701 337.234070,1298.227417 
	C326.063049,1296.923462 315.061218,1302.535400 309.556274,1312.345947 
	C303.614868,1322.934326 305.335724,1335.718994 313.899353,1344.610352 
	C322.702484,1353.750488 336.154083,1355.454102 349.060547,1348.660278 
z"/>
<path fill="#FFFFFF" opacity="1.000000" stroke="none" 
	d="
M830.531372,1.000002 
	C825.160461,1.612151 819.334290,2.441042 813.479248,2.803164 
	C749.864441,6.737630 687.465942,17.592424 626.249634,35.344498 
	C588.458069,46.303646 551.539246,59.674629 515.651550,75.765060 
	C477.081482,93.058167 439.887573,112.957024 404.174347,135.648270 
	C367.584747,158.896347 332.885956,184.662430 300.197937,213.079193 
	C270.537384,238.864044 242.824783,266.657471 216.759048,296.103149 
	C181.556534,335.870392 150.537247,378.698547 123.243660,424.189453 
	C104.106453,456.085938 87.243629,489.197571 72.445358,523.367737 
	C51.036842,572.801270 34.373596,623.752197 22.411772,676.261963 
	C11.442877,724.412903 4.960659,773.182861 2.160881,822.463013 
	C1.915372,826.784241 1.805407,831.113281 1.316243,835.719360 
	C1.000000,557.739807 1.000000,279.479553 1.000000,1.000000 
	C277.354187,1.000000 553.708435,1.000000 830.531372,1.000002 
z"/>
<path fill="#FFFFFF" opacity="1.000000" stroke="none" 
	d="
M1736.000000,830.531372 
	C1735.392822,825.334900 1734.560669,819.683655 1734.212769,814.002686 
	C1730.295898,750.049316 1719.455444,687.316223 1701.469116,625.805847 
	C1690.846069,589.476562 1678.058716,553.963318 1662.742432,519.336853 
	C1645.094238,479.439117 1624.751221,441.017883 1601.301270,404.216522 
	C1570.628296,356.079742 1535.713989,311.350800 1496.220581,270.081177 
	C1460.127808,232.365463 1421.258423,197.920105 1379.117065,167.168365 
	C1346.009766,143.008896 1311.335205,121.325989 1275.132812,102.073021 
	C1201.679810,63.009666 1124.169312,35.238674 1042.714111,18.504272 
	C1003.365295,10.420313 963.615662,5.143116 923.493164,2.831232 
	C915.850708,2.390869 908.203552,2.033257 900.279297,1.318731 
	C1178.593506,1.000000 1457.187012,1.000000 1736.000000,1.000000 
	C1736.000000,277.354187 1736.000000,553.708435 1736.000000,830.531372 
z"/>
<path fill="#FFFFFF" opacity="1.000000" stroke="none" 
	d="
M1.000000,907.468628 
	C1.602138,912.003723 2.490809,916.992065 2.761232,922.013672 
	C4.992684,963.449524 10.642966,1004.442932 19.003683,1045.049561 
	C29.328680,1095.196167 44.135895,1144.015259 63.212452,1191.548096 
	C81.142464,1236.224121 102.610687,1279.128906 127.707016,1320.177612 
	C155.809265,1366.143066 187.869263,1409.195190 224.090668,1449.126709 
	C247.821930,1475.288818 272.868073,1500.129272 299.472992,1523.332886 
	C332.534332,1552.167358 367.697601,1578.250732 404.762451,1601.752319 
	C433.371124,1619.892090 462.938568,1636.312500 493.471741,1650.957031 
	C549.733765,1677.941650 608.255066,1698.578125 668.993469,1712.923706 
	C719.332581,1724.813110 770.361267,1731.850098 821.971619,1734.831421 
	C826.789978,1735.109741 831.619812,1735.188354 836.722168,1735.679932 
	C558.406555,1736.000000 279.813080,1736.000000 1.000000,1736.000000 
	C1.000000,1459.979126 1.000000,1183.958252 1.000000,907.468628 
z"/>
<path fill="#FFFFFF" opacity="1.000000" stroke="none" 
	d="
M906.468628,1736.000000 
	C911.664734,1735.397095 917.315857,1734.570923 922.996277,1734.225220 
	C990.137329,1730.139038 1055.885864,1718.325928 1120.262207,1698.846680 
	C1170.254272,1683.719849 1218.460693,1664.183228 1264.899292,1640.278442 
	C1306.244141,1618.995850 1345.627563,1594.573975 1383.018921,1566.911133 
	C1414.901245,1543.323853 1444.970581,1517.671997 1473.400269,1490.001465 
	C1514.985718,1449.527100 1552.218506,1405.470459 1584.993774,1357.590210 
	C1610.341431,1320.560547 1632.722290,1281.825562 1652.017456,1241.341553 
	C1678.502197,1185.772705 1698.762573,1127.978394 1712.921631,1068.054199 
	C1724.779785,1017.868164 1731.785278,966.989990 1734.813477,915.540588 
	C1735.106812,910.555908 1735.190918,905.558838 1735.686035,900.283813 
	C1736.000000,1178.593506 1736.000000,1457.187012 1736.000000,1736.000000 
	C1459.645752,1736.000000 1183.291504,1736.000000 906.468628,1736.000000 
z"/>
<path fill="#FAFAFD" opacity="1.000000" stroke="none" 
	d="
M937.089050,1161.936157 
	C937.464355,1157.185791 937.333374,1152.740845 930.322083,1152.529907 
	C1029.486938,894.900452 1128.370239,638.002563 1227.342651,380.873322 
	C1229.447266,381.427765 1231.332031,381.924286 1233.632080,382.530182 
	C1233.843506,380.417297 1234.047852,378.374786 1235.037842,376.154114 
	C1309.537231,375.983795 1383.250732,375.991699 1456.964355,375.999573 
	C1456.145264,380.730011 1460.223999,381.015381 1463.553223,382.599548 
	C1364.587158,639.706726 1265.689331,896.636475 1166.679443,1153.857300 
	C1164.602661,1153.339233 1162.745361,1152.875977 1160.492920,1152.314087 
	C1160.242676,1155.610352 1160.011597,1158.654907 1158.950195,1161.858765 
	C1084.442871,1161.990845 1010.765930,1161.963501 937.089050,1161.936157 
M1443.845703,394.763245 
	C1444.302734,393.307190 1444.759766,391.851105 1445.268188,390.231079 
	C1443.992188,390.101227 1443.498047,390.006927 1443.003784,390.006897 
	C1376.284912,390.000641 1309.566040,389.995087 1242.847168,390.046326 
	C1241.521606,390.047333 1240.196533,390.716156 1238.443848,391.632660 
	C1237.813110,392.985748 1237.099243,394.306824 1236.563843,395.696564 
	C1226.655396,421.418945 1216.777832,447.153259 1206.874756,472.877777 
	C1179.493164,544.005432 1152.076782,615.119629 1124.725464,686.258911 
	C1106.680908,733.192078 1088.765625,780.175049 1070.719360,827.107605 
	C1046.344604,890.498108 1021.912476,953.866516 997.479126,1017.234436 
	C987.034607,1044.322388 976.468567,1071.363525 966.066650,1098.467651 
	C960.177490,1113.812744 954.509399,1129.242676 948.175293,1145.264404 
	C946.972717,1149.721313 950.576416,1147.916504 952.058777,1147.918579 
	C1017.888123,1148.011108 1083.717529,1148.004395 1149.546997,1147.949951 
	C1151.019531,1147.948730 1152.491455,1147.260376 1154.478027,1146.386230 
	C1171.200073,1102.999390 1187.924927,1059.613770 1204.643433,1016.225586 
	C1227.227783,957.613770 1249.827393,899.007812 1272.381958,840.384521 
	C1287.104492,802.118164 1301.720703,763.810852 1316.453125,725.548340 
	C1339.080444,666.782104 1361.774902,608.041687 1384.424561,549.284119 
	C1397.618652,515.055908 1410.817261,480.829346 1423.942383,446.574707 
	C1430.479004,429.515198 1436.855103,412.394196 1443.845703,394.763245 
z"/>
<path fill="#FEFDFE" opacity="1.000000" stroke="none" 
	d="
M427.147522,761.978333 
	C417.726471,758.688110 415.030945,754.850220 415.006134,744.606323 
	C414.987213,736.800232 414.874268,728.991272 415.041901,721.188721 
	C415.216736,713.050720 418.833099,708.573181 427.250061,706.267944 
	C429.002991,706.063965 430.001984,706.010620 431.000946,706.010620 
	C552.445923,706.007568 673.890930,706.007385 795.335938,706.018250 
	C797.164551,706.018372 798.993164,706.156982 800.821777,706.230957 
	C809.020081,709.398865 811.923401,713.542786 811.982971,722.398926 
	C812.036560,730.372620 812.075500,738.348083 811.965210,746.320679 
	C811.851685,754.528992 808.750732,758.823669 800.722107,761.523438 
	C797.990540,761.824707 795.995422,761.984009 794.000305,761.984070 
	C671.716064,761.990479 549.431763,761.983826 427.147522,761.978333 
M790.426819,748.006470 
	C792.857361,748.006470 795.287903,748.006470 797.634766,748.006470 
	C797.634766,738.302429 797.634766,729.243896 797.634766,720.235840 
	C674.662720,720.235840 552.065857,720.235840 429.288910,720.235840 
	C429.288910,729.537292 429.288910,738.593262 429.288910,748.006287 
	C549.531006,748.006287 669.488647,748.006287 790.426819,748.006470 
z"/>
<path fill="#FEFDFE" opacity="1.000000" stroke="none" 
	d="
M805.664368,1004.180176 
	C810.251282,1007.893005 812.104126,1012.754517 812.020996,1018.584534 
	C811.907288,1026.553467 812.089111,1034.526855 811.962952,1042.495361 
	C811.835327,1050.557251 808.555176,1054.979492 800.575806,1057.566284 
	C797.192993,1057.851196 794.531799,1057.989380 791.870605,1057.989502 
	C670.310791,1057.996460 548.751038,1057.991455 427.191254,1057.987793 
	C417.725006,1054.678833 415.031769,1050.863647 415.005005,1040.635376 
	C414.984558,1032.823853 414.876648,1025.009888 415.038025,1017.201721 
	C415.206421,1009.052063 418.808685,1004.582947 427.246399,1002.269470 
	C429.165070,1002.064514 430.329681,1002.010010 431.494263,1002.009949 
	C552.670532,1002.006958 673.846802,1002.004944 795.023071,1002.031555 
	C797.339355,1002.032104 799.655579,1002.373718 801.971802,1002.556213 
	C801.971802,1002.556213 801.874817,1002.277588 801.985962,1002.541626 
	C802.741150,1002.902161 803.385132,1002.998718 804.029175,1003.095276 
	C804.029175,1003.095276 803.995117,1002.994263 804.086548,1003.256226 
	C804.673401,1003.738892 805.168884,1003.959534 805.664368,1004.180176 
M482.500000,1044.003784 
	C587.579773,1044.003784 692.659546,1044.003784 797.619263,1044.003784 
	C797.619263,1034.272461 797.619263,1025.213379 797.619263,1016.246277 
	C674.633667,1016.246277 552.037964,1016.246277 429.299927,1016.246277 
	C429.299927,1025.559204 429.299927,1034.615479 429.299927,1044.003784 
	C446.896149,1044.003784 464.198090,1044.003784 482.500000,1044.003784 
z"/>
<path fill="#FEFEFE" opacity="1.000000" stroke="none" 
	d="
M417.094299,1346.608887 
	C416.396271,1343.070557 415.238556,1339.550659 415.095032,1335.989990 
	C414.787537,1328.361328 414.888733,1320.709229 415.037415,1313.070923 
	C415.194855,1304.981689 418.828766,1300.495728 427.293854,1298.226685 
	C429.883820,1298.043823 431.715607,1298.008545 433.547424,1298.008545 
	C553.128235,1298.006836 672.708984,1298.006836 792.289795,1298.015625 
	C795.118286,1298.015747 797.946716,1298.117310 800.775208,1298.171631 
	C809.077026,1301.351685 811.924194,1305.369507 811.983032,1314.221802 
	C812.034790,1322.012695 812.016968,1329.804321 811.973511,1337.595459 
	C811.945496,1342.619995 810.516602,1347.045410 805.735718,1350.486328 
	C804.816528,1351.228271 804.371338,1351.607544 803.926147,1351.986694 
	C803.926147,1351.986694 803.988403,1352.007690 803.571350,1351.999878 
	C800.523315,1352.326904 797.892517,1352.953735 795.261414,1352.954834 
	C674.110718,1353.002686 552.960022,1353.015137 431.809418,1352.900391 
	C428.271637,1352.896973 424.735199,1351.482666 421.198151,1350.726074 
	C421.198151,1350.726074 421.187317,1350.796997 421.059326,1350.523682 
	C420.369446,1349.962280 419.807556,1349.674072 419.245667,1349.385864 
	C419.245667,1349.385864 419.321686,1349.604370 419.246704,1349.299805 
	C418.479218,1348.199707 417.786743,1347.404297 417.094299,1346.608887 
M533.500000,1311.989258 
	C498.749512,1311.989258 463.999023,1311.989258 429.398407,1311.989258 
	C429.398407,1321.423828 429.398407,1330.148193 429.398407,1338.743286 
	C552.388855,1338.743286 674.979980,1338.743286 797.693970,1338.743286 
	C797.693970,1329.750732 797.693970,1321.030640 797.693970,1311.989258 
	C709.751709,1311.989258 622.125854,1311.989258 533.500000,1311.989258 
z"/>
<path fill="#FBFBFD" opacity="1.000000" stroke="none" 
	d="
M871.005371,1345.082031 
	C866.702393,1343.692383 862.399414,1342.302856 857.425354,1340.696655 
	C878.007812,1293.120728 898.242432,1246.348999 918.545044,1199.420166 
	C920.492004,1200.121948 922.187134,1200.733032 924.552490,1201.559326 
	C967.809143,1201.816040 1010.395447,1201.857422 1052.981812,1201.898804 
	C1054.443237,1206.025024 1055.904663,1210.151367 1057.667114,1215.127319 
	C1019.915466,1256.558838 981.295166,1298.943604 942.427063,1341.600342 
	C940.754089,1340.417969 939.220154,1339.333862 937.014709,1337.775146 
	C937.014709,1340.020142 937.014709,1341.606812 936.495178,1343.594482 
	C915.951477,1343.997314 895.927124,1343.973877 875.903259,1344.047485 
	C874.269348,1344.053467 872.637939,1344.721558 871.005371,1345.082031 
M1034.949463,1218.956909 
	C1035.589111,1218.161133 1036.228760,1217.365356 1037.087402,1216.296997 
	C1036.001587,1216.138306 1035.529297,1216.009033 1035.057007,1216.008911 
	C1000.241394,1215.998779 965.425842,1215.987671 930.610291,1216.038940 
	C929.216125,1216.041016 927.822937,1216.642944 926.019653,1217.498535 
	C913.598755,1246.102539 901.144043,1274.691895 888.779907,1303.320435 
	C885.569031,1310.755005 882.641052,1318.311890 879.044800,1326.297607 
	C878.678101,1327.424438 878.311340,1328.551270 877.839783,1330.000122 
	C896.242126,1330.000122 913.987854,1330.012695 931.733337,1329.963623 
	C932.639465,1329.961060 933.544128,1329.428833 935.040527,1328.882812 
	C939.870300,1323.630615 944.722717,1318.399048 949.525940,1313.122681 
	C968.534424,1292.241943 987.560425,1271.376953 1006.512207,1250.444824 
	C1015.859070,1240.121460 1025.058472,1229.664551 1034.949463,1218.956909 
z"/>
<path fill="#FAF9FD" opacity="1.000000" stroke="none" 
	d="
M309.166595,746.714844 
	C303.880829,734.404602 305.866638,722.443970 314.356018,714.098328 
	C322.542450,706.050537 334.979553,703.794678 345.365997,708.473694 
	C356.005676,713.266785 362.631927,724.219055 361.886597,735.780029 
	C361.089569,748.142639 352.361206,758.341919 340.104218,761.233276 
	C328.022888,764.083191 315.991333,758.536560 309.166595,746.714844 
M336.821350,720.323730 
	C325.869385,719.363098 317.996674,727.446899 320.425262,737.159546 
	C322.098785,743.852417 328.029236,748.319153 334.747559,747.946960 
	C341.239105,747.587341 346.687164,742.681763 347.814484,736.181030 
	C348.989655,729.404297 345.004639,723.328430 336.821350,720.323730 
z"/>
<path fill="#FAF9FD" opacity="1.000000" stroke="none" 
	d="
M361.620239,1034.370850 
	C358.046265,1048.892212 347.905304,1057.621826 334.656647,1057.945679 
	C322.189789,1058.250366 310.721100,1050.015381 307.287750,1037.988159 
	C304.115784,1026.876465 306.842346,1017.081787 315.337921,1009.370361 
	C324.021515,1001.488342 334.333679,999.764221 345.062836,1004.421570 
	C355.772186,1009.070557 361.288940,1017.775269 361.929932,1029.463257 
	C362.011383,1030.948853 361.778259,1032.451660 361.620239,1034.370850 
M346.679657,1035.821655 
	C349.037811,1030.195312 348.250153,1024.986328 344.162354,1020.522217 
	C340.655487,1016.692566 336.129364,1015.249878 331.002838,1016.399353 
	C324.643036,1017.825439 320.239288,1023.226807 320.041138,1029.593018 
	C319.848053,1035.796631 323.723083,1041.230469 329.745880,1043.201660 
	C336.245056,1045.328735 341.913574,1043.029541 346.679657,1035.821655 
z"/>
<path fill="#FAF9FD" opacity="1.000000" stroke="none" 
	d="
M348.728210,1348.819824 
	C336.154083,1355.454102 322.702484,1353.750488 313.899353,1344.610352 
	C305.335724,1335.718994 303.614868,1322.934326 309.556274,1312.345947 
	C315.061218,1302.535400 326.063049,1296.923462 337.234070,1298.227417 
	C348.509033,1299.543701 357.929962,1307.517700 360.930206,1318.284424 
	C363.928406,1329.043823 360.244476,1339.810669 351.047699,1347.150635 
	C350.397736,1347.669312 349.723450,1348.157715 348.728210,1348.819824 
M342.480438,1314.861328 
	C335.952423,1311.089233 330.314484,1311.131958 325.293732,1314.991333 
	C321.044250,1318.257935 319.109833,1323.802124 320.491425,1328.755249 
	C322.060944,1334.382080 326.844513,1338.351318 332.749481,1338.926392 
	C338.411530,1339.477905 344.227905,1336.213501 346.676086,1331.110352 
	C349.264313,1325.715332 348.090881,1320.562622 342.480438,1314.861328 
z"/>
<path fill="#5448B9" opacity="1.000000" stroke="none" 
	d="
M421.307556,1351.077393 
	C424.735199,1351.482666 428.271637,1352.896973 431.809418,1352.900391 
	C552.960022,1353.015137 674.110718,1353.002686 795.261414,1352.954834 
	C797.892517,1352.953735 800.523315,1352.326904 803.577698,1351.967773 
	C801.557678,1352.628662 799.117859,1353.893921 796.670166,1353.909302 
	C772.863647,1354.058960 749.055847,1353.999634 725.248413,1354.000000 
	C627.521362,1354.001221 529.794250,1354.029541 432.067413,1353.895142 
	C428.516113,1353.890259 424.967072,1352.287109 421.307556,1351.077393 
z"/>
<path fill="#544AAA" opacity="1.000000" stroke="none" 
	d="
M801.645325,1002.270508 
	C799.655579,1002.373718 797.339355,1002.032104 795.023071,1002.031555 
	C673.846802,1002.004944 552.670532,1002.006958 431.494263,1002.009949 
	C430.329681,1002.010010 429.165070,1002.064514 427.540649,1002.067383 
	C429.003632,1001.683899 430.926392,1001.014587 432.849396,1001.013794 
	C553.579529,1000.963074 674.309692,1000.961792 795.039856,1001.008179 
	C797.132935,1001.008972 799.225830,1001.645081 801.645325,1002.270508 
z"/>
<path fill="#544AAA" opacity="1.000000" stroke="none" 
	d="
M427.303101,1058.226562 
	C548.751038,1057.991455 670.310791,1057.996460 791.870605,1057.989502 
	C794.531799,1057.989380 797.192993,1057.851196 800.296875,1057.789429 
	C797.340454,1058.223999 793.941589,1059.013428 790.542236,1059.015747 
	C693.773132,1059.079346 597.003967,1059.063843 500.234802,1059.060791 
	C477.916260,1059.060181 455.597687,1059.072632 433.279236,1059.031006 
	C431.324127,1059.027344 429.369690,1058.662598 427.303101,1058.226562 
z"/>
<path fill="#564BA9" opacity="1.000000" stroke="none" 
	d="
M427.477234,762.205261 
	C549.431763,761.983826 671.716064,761.990479 794.000305,761.984070 
	C795.995422,761.984009 797.990540,761.824707 800.448730,761.733826 
	C798.187439,762.166992 795.463257,762.988525 792.738708,762.989990 
	C673.061035,763.055786 553.383423,763.052124 433.705780,763.025513 
	C431.739471,763.025085 429.773193,762.638550 427.477234,762.205261 
z"/>
<path fill="#544AAA" opacity="1.000000" stroke="none" 
	d="
M800.459839,1297.932251 
	C797.946716,1298.117310 795.118286,1298.015747 792.289795,1298.015625 
	C672.708984,1298.006836 553.128235,1298.006836 433.547424,1298.008545 
	C431.715607,1298.008545 429.883820,1298.043823 427.601868,1298.029053 
	C429.079041,1297.651123 431.006195,1297.006714 432.933716,1297.005859 
	C553.545532,1296.949585 674.157410,1296.942383 794.769287,1296.968384 
	C796.561096,1296.968750 798.352722,1297.440918 800.459839,1297.932251 
z"/>
<path fill="#544AAA" opacity="1.000000" stroke="none" 
	d="
M800.512878,705.981934 
	C798.993164,706.156982 797.164551,706.018372 795.335938,706.018250 
	C673.890930,706.007385 552.445923,706.007568 431.000946,706.010620 
	C430.001984,706.010620 429.002991,706.063965 427.544678,706.065857 
	C429.009552,705.679749 430.933624,705.006409 432.858032,705.005493 
	C553.517883,704.948059 674.177795,704.941895 794.837708,704.970703 
	C796.626526,704.971130 798.415222,705.467834 800.512878,705.981934 
z"/>
<path fill="#564BA9" opacity="1.000000" stroke="none" 
	d="
M937.431274,1162.156006 
	C1010.765930,1161.963501 1084.442871,1161.990845 1158.591309,1162.089478 
	C1156.781250,1162.459351 1154.499756,1163.017334 1152.218018,1163.018799 
	C1082.697998,1163.062988 1013.178040,1163.057983 943.658020,1163.022217 
	C941.696411,1163.021240 939.734985,1162.600830 937.431274,1162.156006 
z"/>
<path fill="#544AAA" opacity="1.000000" stroke="none" 
	d="
M1456.613770,375.784546 
	C1383.250732,375.991699 1309.537231,375.983795 1235.343262,375.912048 
	C1236.811401,375.555725 1238.759521,375.008942 1240.708130,375.007477 
	C1310.925049,374.955017 1381.141968,374.949158 1451.358887,374.970795 
	C1452.993652,374.971313 1454.628540,375.361206 1456.613770,375.784546 
z"/>
<path fill="#544AAA" opacity="1.000000" stroke="none" 
	d="
M1052.621338,1201.698975 
	C1010.395447,1201.857422 967.809143,1201.816040 924.888428,1201.478027 
	C946.514587,1201.104126 968.475098,1201.001709 990.435669,1200.957642 
	C1009.070923,1200.920044 1027.706299,1200.933594 1046.341675,1200.974121 
	C1048.315186,1200.978394 1050.287842,1201.316162 1052.621338,1201.698975 
z"/>
<path fill="#544AAA" opacity="1.000000" stroke="none" 
	d="
M871.474487,1345.089111 
	C872.637939,1344.721558 874.269348,1344.053467 875.903259,1344.047485 
	C895.927124,1343.973877 915.951477,1343.997314 936.433289,1343.989136 
	C934.642517,1344.341797 932.395569,1345.001831 930.145447,1345.012817 
	C910.745178,1345.106934 891.344238,1345.084229 871.474487,1345.089111 
z"/>
<path fill="#5448B9" opacity="1.000000" stroke="none" 
	d="
M417.114746,1346.976440 
	C417.786743,1347.404297 418.479218,1348.199707 419.355164,1349.259644 
	C418.737518,1348.797485 417.936371,1348.070679 417.114746,1346.976440 
z"/>
<path fill="#544AAA" opacity="1.000000" stroke="none" 
	d="
M805.492798,1003.978821 
	C805.168884,1003.959534 804.673401,1003.738892 804.036011,1003.273193 
	C804.369812,1003.277832 804.845520,1003.527649 805.492798,1003.978821 
z"/>
<path fill="#5448B9" opacity="1.000000" stroke="none" 
	d="
M804.202332,1351.877075 
	C804.371338,1351.607544 804.816528,1351.228271 805.537903,1350.753418 
	C805.368896,1351.027466 804.923706,1351.397461 804.202332,1351.877075 
z"/>
<path fill="#5448B9" opacity="1.000000" stroke="none" 
	d="
M419.428589,1349.651611 
	C419.807556,1349.674072 420.369446,1349.962280 421.094757,1350.518555 
	C420.709290,1350.496826 420.160431,1350.207153 419.428589,1349.651611 
z"/>
<path fill="#544AAA" opacity="1.000000" stroke="none" 
	d="
M803.757996,1002.916443 
	C803.385132,1002.998718 802.741150,1002.902161 801.847107,1002.591309 
	C802.226990,1002.497253 802.856934,1002.617432 803.757996,1002.916443 
z"/>
<path fill="#5142D9" opacity="1.000000" stroke="none" 
	d="
M948.741699,1144.634277 
	C954.509399,1129.242676 960.177490,1113.812744 966.066650,1098.467651 
	C976.468567,1071.363525 987.034607,1044.322388 997.479126,1017.234436 
	C1021.912476,953.866516 1046.344604,890.498108 1070.719360,827.107605 
	C1088.765625,780.175049 1106.680908,733.192078 1124.725464,686.258911 
	C1152.076782,615.119629 1179.493164,544.005432 1206.874756,472.877777 
	C1216.777832,447.153259 1226.655396,421.418945 1236.563843,395.696564 
	C1237.099243,394.306824 1237.813110,392.985748 1239.135010,391.357483 
	C1287.123291,391.070435 1334.420288,391.056976 1381.717407,391.047607 
	C1400.036621,391.044006 1418.355957,391.071960 1436.675171,391.029999 
	C1439.892944,391.022644 1442.784912,391.247498 1443.303833,395.301025 
	C1436.855103,412.394196 1430.479004,429.515198 1423.942383,446.574707 
	C1410.817261,480.829346 1397.618652,515.055908 1384.424561,549.284119 
	C1361.774902,608.041687 1339.080444,666.782104 1316.453125,725.548340 
	C1301.720703,763.810852 1287.104492,802.118164 1272.381958,840.384521 
	C1249.827393,899.007812 1227.227783,957.613770 1204.643433,1016.225586 
	C1187.924927,1059.613770 1171.200073,1102.999390 1153.753174,1146.647461 
	C1086.969604,1146.915894 1020.910645,1146.943604 954.851990,1146.833618 
	C952.814026,1146.830322 950.778442,1145.399658 948.741699,1144.634277 
z"/>
<path fill="#564BA9" opacity="1.000000" stroke="none" 
	d="
M1443.574707,395.032104 
	C1442.784912,391.247498 1439.892944,391.022644 1436.675171,391.029999 
	C1418.355957,391.071960 1400.036621,391.044006 1381.717407,391.047607 
	C1334.420288,391.056976 1287.123291,391.070435 1239.348633,391.077850 
	C1240.196533,390.716156 1241.521606,390.047333 1242.847168,390.046326 
	C1309.566040,389.995087 1376.284912,390.000641 1443.003784,390.006897 
	C1443.498047,390.006927 1443.992188,390.101227 1445.268188,390.231079 
	C1444.759766,391.851105 1444.302734,393.307190 1443.574707,395.032104 
z"/>
<path fill="#564BA9" opacity="1.000000" stroke="none" 
	d="
M948.458496,1144.949341 
	C950.778442,1145.399658 952.814026,1146.830322 954.851990,1146.833618 
	C1020.910645,1146.943604 1086.969604,1146.915894 1153.496094,1146.900635 
	C1152.491455,1147.260376 1151.019531,1147.948730 1149.546997,1147.949951 
	C1083.717529,1148.004395 1017.888123,1148.011108 952.058777,1147.918579 
	C950.576416,1147.916504 946.972717,1149.721313 948.458496,1144.949341 
z"/>
<path fill="#544AAA" opacity="1.000000" stroke="none" 
	d="
M789.936523,748.006348 
	C669.488647,748.006287 549.531006,748.006287 429.288910,748.006287 
	C429.288910,738.593262 429.288910,729.537292 429.288910,720.235840 
	C552.065857,720.235840 674.662720,720.235840 797.634766,720.235840 
	C797.634766,729.243896 797.634766,738.302429 797.634766,748.006470 
	C795.287903,748.006470 792.857361,748.006470 789.936523,748.006348 
M610.500000,746.952698 
	C632.498230,746.952759 654.496582,746.987061 676.494751,746.945312 
	C715.308533,746.871643 754.122192,746.731384 792.935974,746.692017 
	C795.832581,746.689087 796.845398,745.288879 796.878601,742.762146 
	C796.941956,737.930115 796.952637,733.096924 796.935303,728.264404 
	C796.910522,721.354858 796.582092,721.048401 789.471375,721.048340 
	C672.314453,721.046631 555.157593,721.046997 438.000671,721.047302 
	C437.000763,721.047302 435.996277,721.115479 435.001770,721.043335 
	C431.427032,720.784363 429.779602,722.296265 429.913544,725.991577 
	C430.070404,730.318787 429.943726,734.656128 429.944916,738.989075 
	C429.947113,746.935120 429.948608,746.949463 438.014282,746.950073 
	C495.176178,746.954407 552.338074,746.952393 610.500000,746.952698 
z"/>
<path fill="#544AAA" opacity="1.000000" stroke="none" 
	d="
M482.000000,1044.003784 
	C464.198090,1044.003784 446.896149,1044.003784 429.299927,1044.003784 
	C429.299927,1034.615479 429.299927,1025.559204 429.299927,1016.246277 
	C552.037964,1016.246277 674.633667,1016.246277 797.619263,1016.246277 
	C797.619263,1025.213379 797.619263,1034.272461 797.619263,1044.003784 
	C692.659546,1044.003784 587.579773,1044.003784 482.000000,1044.003784 
M641.500000,1017.036926 
	C574.197083,1017.036926 506.894135,1017.036194 439.591187,1017.039795 
	C437.759155,1017.039856 435.703186,1016.574646 434.156311,1017.251343 
	C432.518585,1017.967896 430.294830,1019.710815 430.186920,1021.145386 
	C429.738342,1027.108643 429.776672,1033.138428 430.153351,1039.111084 
	C430.236877,1040.435303 432.219543,1042.075928 433.701111,1042.748901 
	C435.089600,1043.379639 436.972687,1042.939941 438.638153,1042.940063 
	C554.086182,1042.945190 669.534241,1042.947144 784.982300,1042.949341 
	C787.147949,1042.949341 789.319641,1042.844604 791.477966,1042.969971 
	C795.258972,1043.189331 797.045288,1041.586914 796.951599,1037.720215 
	C796.846680,1033.391724 796.958374,1029.058105 796.957703,1024.726807 
	C796.956543,1017.358948 796.693604,1017.076111 789.433777,1017.073486 
	C740.455872,1017.055908 691.477905,1017.048157 641.500000,1017.036926 
z"/>
<path fill="#5449B1" opacity="1.000000" stroke="none" 
	d="
M534.000000,1311.989258 
	C622.125854,1311.989258 709.751709,1311.989258 797.693970,1311.989258 
	C797.693970,1321.030640 797.693970,1329.750732 797.693970,1338.743286 
	C674.979980,1338.743286 552.388855,1338.743286 429.398407,1338.743286 
	C429.398407,1330.148193 429.398407,1321.423828 429.398407,1311.989258 
	C463.999023,1311.989258 498.749512,1311.989258 534.000000,1311.989258 
M539.500000,1313.062622 
	C530.836182,1313.062500 522.172363,1313.062256 513.508545,1313.062378 
	C487.683746,1313.062744 461.858521,1313.138672 436.034546,1312.991333 
	C431.555511,1312.965820 429.554016,1314.328857 429.914551,1318.997070 
	C430.195923,1322.640625 429.951965,1326.323730 429.969666,1329.989014 
	C430.008392,1338.017822 430.015747,1338.025269 437.966187,1338.025146 
	C554.594360,1338.024170 671.222473,1338.021118 787.850647,1338.017700 
	C789.183472,1338.017700 790.739746,1338.442383 791.797668,1337.900269 
	C793.447266,1337.054443 795.857300,1335.672485 796.011108,1334.300903 
	C796.504761,1329.897095 796.092285,1325.394043 796.064758,1320.929077 
	C796.016174,1313.060669 796.027100,1313.065796 788.418091,1313.065796 
	C705.778748,1313.065796 623.139343,1313.064087 539.500000,1313.062622 
z"/>
<path fill="#5243D8" opacity="1.000000" stroke="none" 
	d="
M879.583069,1325.812500 
	C882.641052,1318.311890 885.569031,1310.755005 888.779907,1303.320435 
	C901.144043,1274.691895 913.598755,1246.102539 926.730408,1217.254395 
	C960.671692,1217.022949 993.902466,1216.989868 1027.132324,1217.143799 
	C1029.532959,1217.154907 1031.927368,1218.528076 1034.324585,1219.268066 
	C1025.058472,1229.664551 1015.859070,1240.121460 1006.512207,1250.444824 
	C987.560425,1271.376953 968.534424,1292.241943 949.525940,1313.122681 
	C944.722717,1318.399048 939.870300,1323.630615 934.248962,1328.968384 
	C917.660950,1329.019653 901.864441,1328.975586 886.067993,1328.960083 
	C883.369690,1328.957520 880.593323,1329.237793 879.583069,1325.812500 
z"/>
<path fill="#564BA9" opacity="1.000000" stroke="none" 
	d="
M1034.636963,1219.112549 
	C1031.927368,1218.528076 1029.532959,1217.154907 1027.132324,1217.143799 
	C993.902466,1216.989868 960.671692,1217.022949 926.935181,1216.987915 
	C927.822937,1216.642944 929.216125,1216.041016 930.610291,1216.038940 
	C965.425842,1215.987671 1000.241394,1215.998779 1035.057007,1216.008911 
	C1035.529297,1216.009033 1036.001587,1216.138306 1037.087402,1216.296997 
	C1036.228760,1217.365356 1035.589111,1218.161133 1034.636963,1219.112549 
z"/>
<path fill="#564BA9" opacity="1.000000" stroke="none" 
	d="
M879.313965,1326.055054 
	C880.593323,1329.237793 883.369690,1328.957520 886.067993,1328.960083 
	C901.864441,1328.975586 917.660950,1329.019653 933.953430,1329.098511 
	C933.544128,1329.428833 932.639465,1329.961060 931.733337,1329.963623 
	C913.987854,1330.012695 896.242126,1330.000122 877.839783,1330.000122 
	C878.311340,1328.551270 878.678101,1327.424438 879.313965,1326.055054 
z"/>
<path fill="#5446D3" opacity="1.000000" stroke="none" 
	d="
M337.201355,720.451172 
	C345.004639,723.328430 348.989655,729.404297 347.814484,736.181030 
	C346.687164,742.681763 341.239105,747.587341 334.747559,747.946960 
	C328.029236,748.319153 322.098785,743.852417 320.425262,737.159546 
	C317.996674,727.446899 325.869385,719.363098 337.201355,720.451172 
z"/>
<path fill="#5446D3" opacity="1.000000" stroke="none" 
	d="
M346.485291,1036.156250 
	C341.913574,1043.029541 336.245056,1045.328735 329.745880,1043.201660 
	C323.723083,1041.230469 319.848053,1035.796631 320.041138,1029.593018 
	C320.239288,1023.226807 324.643036,1017.825439 331.002838,1016.399353 
	C336.129364,1015.249878 340.655487,1016.692566 344.162354,1020.522217 
	C348.250153,1024.986328 349.037811,1030.195312 346.485291,1036.156250 
z"/>
<path fill="#5446D3" opacity="1.000000" stroke="none" 
	d="
M342.780212,1315.090332 
	C348.090881,1320.562622 349.264313,1325.715332 346.676086,1331.110352 
	C344.227905,1336.213501 338.411530,1339.477905 332.749481,1338.926392 
	C326.844513,1338.351318 322.060944,1334.382080 320.491425,1328.755249 
	C319.109833,1323.802124 321.044250,1318.257935 325.293732,1314.991333 
	C330.314484,1311.131958 335.952423,1311.089233 342.780212,1315.090332 
z"/>
<path fill="#5142D8" opacity="1.000000" stroke="none" 
	d="
M610.000000,746.952576 
	C552.338074,746.952393 495.176178,746.954407 438.014282,746.950073 
	C429.948608,746.949463 429.947113,746.935120 429.944916,738.989075 
	C429.943726,734.656128 430.070404,730.318787 429.913544,725.991577 
	C429.779602,722.296265 431.427032,720.784363 435.001770,721.043335 
	C435.996277,721.115479 437.000763,721.047302 438.000671,721.047302 
	C555.157593,721.046997 672.314453,721.046631 789.471375,721.048340 
	C796.582092,721.048401 796.910522,721.354858 796.935303,728.264404 
	C796.952637,733.096924 796.941956,737.930115 796.878601,742.762146 
	C796.845398,745.288879 795.832581,746.689087 792.935974,746.692017 
	C754.122192,746.731384 715.308533,746.871643 676.494751,746.945312 
	C654.496582,746.987061 632.498230,746.952759 610.000000,746.952576 
z"/>
<path fill="#5142D8" opacity="1.000000" stroke="none" 
	d="
M642.000000,1017.037048 
	C691.477905,1017.048157 740.455872,1017.055908 789.433777,1017.073486 
	C796.693604,1017.076111 796.956543,1017.358948 796.957703,1024.726807 
	C796.958374,1029.058105 796.846680,1033.391724 796.951599,1037.720215 
	C797.045288,1041.586914 795.258972,1043.189331 791.477966,1042.969971 
	C789.319641,1042.844604 787.147949,1042.949341 784.982300,1042.949341 
	C669.534241,1042.947144 554.086182,1042.945190 438.638153,1042.940063 
	C436.972687,1042.939941 435.089600,1043.379639 433.701111,1042.748901 
	C432.219543,1042.075928 430.236877,1040.435303 430.153351,1039.111084 
	C429.776672,1033.138428 429.738342,1027.108643 430.186920,1021.145386 
	C430.294830,1019.710815 432.518585,1017.967896 434.156311,1017.251343 
	C435.703186,1016.574646 437.759155,1017.039856 439.591187,1017.039795 
	C506.894135,1017.036194 574.197083,1017.036926 642.000000,1017.037048 
z"/>
<path fill="#5142D9" opacity="1.000000" stroke="none" 
	d="
M540.000000,1313.062744 
	C623.139343,1313.064087 705.778748,1313.065796 788.418091,1313.065796 
	C796.027100,1313.065796 796.016174,1313.060669 796.064758,1320.929077 
	C796.092285,1325.394043 796.504761,1329.897095 796.011108,1334.300903 
	C795.857300,1335.672485 793.447266,1337.054443 791.797668,1337.900269 
	C790.739746,1338.442383 789.183472,1338.017700 787.850647,1338.017700 
	C671.222473,1338.021118 554.594360,1338.024170 437.966187,1338.025146 
	C430.015747,1338.025269 430.008392,1338.017822 429.969666,1329.989014 
	C429.951965,1326.323730 430.195923,1322.640625 429.914551,1318.997070 
	C429.554016,1314.328857 431.555511,1312.965820 436.034546,1312.991333 
	C461.858521,1313.138672 487.683746,1313.062744 513.508545,1313.062378 
	C522.172363,1313.062256 530.836182,1313.062500 540.000000,1313.062744 
z"/>
</svg>