<svg id="Icon" viewBox="0 0 24 24" xmlns="http://www.w3.org/2000/svg"><path d="m21.53 11.47-3-3c-.293-.293-.768-.293-1.061 0s-.293.768 0 1.061l1.72 1.72h-10.189c-.414 0-.75.336-.75.75s.336.75.75.75h10.189l-1.72 1.72c-.293.293-.293.768 0 1.061.146.146.338.22.53.22s.384-.073.53-.22l3-3c.293-.293.293-.768 0-1.061z" fill="#549bff"/><path d="m12 21.75h-8c-.965 0-1.75-.785-1.75-1.75v-16c0-.965.785-1.75 1.75-1.75h8c.965 0 1.75.785 1.75 1.75v2c0 .414-.336.75-.75.75s-.75-.336-.75-.75v-2c0-.138-.112-.25-.25-.25h-8c-.138 0-.25.112-.25.25v16c0 .138.112.25.25.25h8c.138 0 .25-.112.25-.25v-2c0-.414.336-.75.75-.75s.75.336.75.75v2c0 .965-.785 1.75-1.75 1.75z" fill="#112d55"/></svg>