<svg height="512" viewBox="0 0 24 24" width="512" xmlns="http://www.w3.org/2000/svg" xmlns:xlink="http://www.w3.org/1999/xlink"><linearGradient id="Orange_Yellow" gradientUnits="userSpaceOnUse" x1=".677" x2="18.612" y1="25.787" y2="3.935"><stop offset="0" stop-color="#fff33b"/><stop offset=".04" stop-color="#fee72e"/><stop offset=".117" stop-color="#fed51b"/><stop offset=".196" stop-color="#fdca10"/><stop offset=".281" stop-color="#fdc70c"/><stop offset=".669" stop-color="#f3903f"/><stop offset=".888" stop-color="#ed683c"/><stop offset="1" stop-color="#e93e3a"/></linearGradient><linearGradient id="Orange_Yellow-2" x1="-1.771" x2="16.164" xlink:href="#Orange_Yellow" y1="23.778" y2="1.926"/><g id="Layer_2" data-name="Layer 2"><path d="m18.6 3.2a1 1 0 0 0 -1.2 1.6 9 9 0 1 1 -14.4 7.2 8.932 8.932 0 0 1 3.6-7.2 1 1 0 1 0 -1.2-1.6 11 11 0 1 0 17.6 8.8 10.919 10.919 0 0 0 -4.4-8.8z" fill="url(#Orange_Yellow)"/><path d="m12 13a1 1 0 0 0 1-1v-10a1 1 0 0 0 -2 0v10a1 1 0 0 0 1 1z" fill="url(#Orange_Yellow-2)"/></g></svg>