<svg xmlns="http://www.w3.org/2000/svg" xmlns:xlink="http://www.w3.org/1999/xlink" width="500" zoomAndPan="magnify" viewBox="0 0 375 374.999991" height="500" preserveAspectRatio="xMidYMid meet" version="1.0"><defs><clipPath id="38054c5f41"><path d="M 89 70.023438 L 285 70.023438 L 285 304.773438 L 89 304.773438 Z M 89 70.023438 " clip-rule="nonzero"/></clipPath></defs><path fill="#5143d9" d="M 375 187.5 C 375 190.570312 374.925781 193.636719 374.773438 196.699219 C 374.625 199.765625 374.398438 202.824219 374.097656 205.878906 C 373.796875 208.933594 373.421875 211.976562 372.96875 215.011719 C 372.519531 218.046875 371.996094 221.070312 371.398438 224.078125 C 370.796875 227.089844 370.125 230.082031 369.378906 233.058594 C 368.636719 236.035156 367.816406 238.992188 366.925781 241.929688 C 366.035156 244.863281 365.074219 247.777344 364.039062 250.667969 C 363.003906 253.554688 361.902344 256.417969 360.726562 259.253906 C 359.554688 262.089844 358.308594 264.890625 356.996094 267.667969 C 355.6875 270.441406 354.304688 273.179688 352.859375 275.886719 C 351.414062 278.59375 349.902344 281.261719 348.324219 283.894531 C 346.746094 286.527344 345.105469 289.117188 343.402344 291.667969 C 341.695312 294.222656 339.929688 296.730469 338.101562 299.195312 C 336.273438 301.660156 334.386719 304.078125 332.4375 306.449219 C 330.492188 308.820312 328.488281 311.144531 326.429688 313.417969 C 324.367188 315.691406 322.253906 317.914062 320.082031 320.082031 C 317.914062 322.253906 315.691406 324.367188 313.417969 326.429688 C 311.144531 328.488281 308.820312 330.492188 306.449219 332.4375 C 304.078125 334.386719 301.660156 336.273438 299.195312 338.101562 C 296.730469 339.929688 294.222656 341.695312 291.667969 343.402344 C 289.117188 345.105469 286.527344 346.746094 283.894531 348.324219 C 281.261719 349.902344 278.59375 351.414062 275.886719 352.859375 C 273.179688 354.308594 270.441406 355.6875 267.667969 356.996094 C 264.890625 358.308594 262.089844 359.554688 259.253906 360.726562 C 256.417969 361.902344 253.554688 363.003906 250.667969 364.039062 C 247.777344 365.074219 244.863281 366.035156 241.929688 366.925781 C 238.992188 367.816406 236.035156 368.636719 233.058594 369.378906 C 230.082031 370.125 227.089844 370.796875 224.078125 371.398438 C 221.070312 371.996094 218.046875 372.519531 215.011719 372.96875 C 211.976562 373.421875 208.933594 373.796875 205.878906 374.097656 C 202.824219 374.398438 199.765625 374.625 196.699219 374.773438 C 193.636719 374.925781 190.570312 375 187.5 375 C 184.429688 375 181.363281 374.925781 178.300781 374.773438 C 175.234375 374.625 172.175781 374.398438 169.121094 374.097656 C 166.066406 373.796875 163.023438 373.421875 159.988281 372.96875 C 156.953125 372.519531 153.929688 371.996094 150.921875 371.398438 C 147.910156 370.796875 144.917969 370.125 141.941406 369.378906 C 138.964844 368.636719 136.007812 367.816406 133.070312 366.925781 C 130.136719 366.035156 127.222656 365.074219 124.332031 364.039062 C 121.445312 363.003906 118.582031 361.902344 115.746094 360.726562 C 112.910156 359.554688 110.105469 358.308594 107.332031 356.996094 C 104.558594 355.6875 101.820312 354.308594 99.113281 352.859375 C 96.40625 351.414062 93.738281 349.902344 91.105469 348.324219 C 88.472656 346.746094 85.882812 345.105469 83.332031 343.402344 C 80.777344 341.695312 78.269531 339.929688 75.804688 338.101562 C 73.339844 336.273438 70.921875 334.386719 68.550781 332.4375 C 66.179688 330.492188 63.855469 328.488281 61.582031 326.429688 C 59.308594 324.367188 57.085938 322.253906 54.917969 320.082031 C 52.746094 317.914062 50.632812 315.691406 48.570312 313.417969 C 46.511719 311.144531 44.507812 308.820312 42.558594 306.449219 C 40.613281 304.078125 38.726562 301.660156 36.898438 299.195312 C 35.070312 296.730469 33.304688 294.222656 31.597656 291.667969 C 29.894531 289.117188 28.253906 286.527344 26.675781 283.894531 C 25.097656 281.261719 23.585938 278.59375 22.140625 275.886719 C 20.691406 273.179688 19.3125 270.441406 18.003906 267.667969 C 16.691406 264.890625 15.445312 262.089844 14.273438 259.253906 C 13.097656 256.417969 11.996094 253.554688 10.960938 250.667969 C 9.925781 247.777344 8.964844 244.863281 8.074219 241.929688 C 7.183594 238.992188 6.363281 236.035156 5.617188 233.058594 C 4.875 230.082031 4.203125 227.089844 3.601562 224.078125 C 3.003906 221.070312 2.480469 218.046875 2.03125 215.011719 C 1.578125 211.976562 1.203125 208.933594 0.902344 205.878906 C 0.601562 202.824219 0.375 199.765625 0.226562 196.699219 C 0.0742188 193.636719 0 190.570312 0 187.5 C 0 184.429688 0.0742188 181.363281 0.226562 178.300781 C 0.375 175.234375 0.601562 172.175781 0.902344 169.121094 C 1.203125 166.066406 1.578125 163.023438 2.03125 159.988281 C 2.480469 156.953125 3.003906 153.929688 3.601562 150.921875 C 4.203125 147.910156 4.875 144.917969 5.617188 141.941406 C 6.363281 138.964844 7.183594 136.007812 8.074219 133.070312 C 8.964844 130.136719 9.925781 127.222656 10.960938 124.332031 C 11.996094 121.445312 13.097656 118.582031 14.273438 115.746094 C 15.445312 112.910156 16.691406 110.105469 18.003906 107.332031 C 19.3125 104.558594 20.691406 101.820312 22.140625 99.113281 C 23.585938 96.40625 25.097656 93.738281 26.675781 91.105469 C 28.253906 88.472656 29.894531 85.882812 31.597656 83.332031 C 33.304688 80.777344 35.070312 78.269531 36.898438 75.804688 C 38.726562 73.339844 40.613281 70.921875 42.558594 68.550781 C 44.507812 66.179688 46.511719 63.855469 48.570312 61.582031 C 50.632812 59.308594 52.746094 57.085938 54.917969 54.917969 C 57.085938 52.746094 59.308594 50.632812 61.582031 48.570312 C 63.855469 46.511719 66.179688 44.507812 68.550781 42.558594 C 70.921875 40.613281 73.339844 38.726562 75.804688 36.898438 C 78.269531 35.070312 80.777344 33.304688 83.332031 31.597656 C 85.882812 29.894531 88.472656 28.253906 91.105469 26.675781 C 93.738281 25.097656 96.40625 23.585938 99.113281 22.140625 C 101.820312 20.691406 104.558594 19.3125 107.332031 18.003906 C 110.105469 16.691406 112.910156 15.445312 115.746094 14.273438 C 118.582031 13.097656 121.445312 11.996094 124.332031 10.960938 C 127.222656 9.925781 130.136719 8.964844 133.070312 8.074219 C 136.007812 7.183594 138.964844 6.363281 141.941406 5.617188 C 144.917969 4.875 147.910156 4.203125 150.921875 3.601562 C 153.929688 3.003906 156.953125 2.480469 159.988281 2.03125 C 163.023438 1.578125 166.066406 1.203125 169.121094 0.902344 C 172.175781 0.601562 175.234375 0.375 178.300781 0.226562 C 181.363281 0.0742188 184.429688 0 187.5 0 C 190.570312 0 193.636719 0.0742188 196.699219 0.226562 C 199.765625 0.375 202.824219 0.601562 205.878906 0.902344 C 208.933594 1.203125 211.976562 1.578125 215.011719 2.03125 C 218.046875 2.480469 221.070312 3.003906 224.078125 3.601562 C 227.089844 4.203125 230.082031 4.875 233.058594 5.617188 C 236.035156 6.363281 238.992188 7.183594 241.929688 8.074219 C 244.863281 8.964844 247.777344 9.925781 250.667969 10.960938 C 253.554688 11.996094 256.417969 13.097656 259.253906 14.273438 C 262.089844 15.445312 264.890625 16.691406 267.667969 18.003906 C 270.441406 19.3125 273.179688 20.691406 275.886719 22.140625 C 278.59375 23.585938 281.261719 25.097656 283.894531 26.675781 C 286.527344 28.253906 289.117188 29.894531 291.667969 31.597656 C 294.222656 33.304688 296.730469 35.070312 299.195312 36.898438 C 301.660156 38.726562 304.078125 40.613281 306.449219 42.558594 C 308.820312 44.507812 311.144531 46.511719 313.417969 48.570312 C 315.691406 50.632812 317.914062 52.746094 320.082031 54.917969 C 322.253906 57.085938 324.367188 59.308594 326.429688 61.582031 C 328.488281 63.855469 330.492188 66.179688 332.4375 68.550781 C 334.386719 70.921875 336.273438 73.339844 338.101562 75.804688 C 339.929688 78.269531 341.695312 80.777344 343.402344 83.332031 C 345.105469 85.882812 346.746094 88.472656 348.324219 91.105469 C 349.902344 93.738281 351.414062 96.40625 352.859375 99.113281 C 354.304688 101.820312 355.6875 104.558594 356.996094 107.332031 C 358.308594 110.105469 359.554688 112.910156 360.726562 115.746094 C 361.902344 118.582031 363.003906 121.445312 364.039062 124.332031 C 365.074219 127.222656 366.035156 130.136719 366.925781 133.070312 C 367.816406 136.007812 368.636719 138.964844 369.378906 141.941406 C 370.125 144.917969 370.796875 147.910156 371.398438 150.921875 C 371.996094 153.929688 372.519531 156.953125 372.96875 159.988281 C 373.421875 163.023438 373.796875 166.066406 374.097656 169.121094 C 374.398438 172.175781 374.625 175.234375 374.773438 178.300781 C 374.925781 181.363281 375 184.429688 375 187.5 Z M 375 187.5 " fill-opacity="1" fill-rule="nonzero"/><g clip-path="url(#38054c5f41)"><path fill="#ffffff" d="M 236.582031 71.675781 C 235.566406 70.65625 234.34375 70.105469 232.90625 70.023438 L 114.035156 70.023438 C 113.664062 70.023438 113.292969 70.058594 112.929688 70.128906 C 112.566406 70.203125 112.210938 70.3125 111.867188 70.453125 C 111.523438 70.59375 111.199219 70.769531 110.886719 70.976562 C 110.578125 71.183594 110.292969 71.417969 110.03125 71.679688 C 109.769531 71.941406 109.53125 72.230469 109.328125 72.539062 C 109.121094 72.847656 108.945312 73.175781 108.804688 73.515625 C 108.660156 73.859375 108.554688 74.214844 108.480469 74.578125 C 108.410156 74.945312 108.371094 75.3125 108.371094 75.683594 L 108.371094 90.390625 L 95.578125 90.390625 C 95.21875 90.390625 94.859375 90.425781 94.507812 90.492188 C 94.152344 90.558594 93.808594 90.660156 93.476562 90.792969 C 93.140625 90.925781 92.824219 91.089844 92.519531 91.28125 C 92.214844 91.476562 91.933594 91.695312 91.671875 91.945312 C 91.414062 92.191406 91.175781 92.460938 90.96875 92.753906 C 90.757812 93.046875 90.578125 93.355469 90.425781 93.683594 C 90.277344 94.007812 90.15625 94.347656 90.070312 94.695312 C 89.984375 95.046875 89.933594 95.402344 89.914062 95.757812 L 89.914062 299.273438 C 89.914062 299.644531 89.949219 300.011719 90.023438 300.375 C 90.097656 300.742188 90.203125 301.09375 90.34375 301.4375 C 90.488281 301.78125 90.664062 302.109375 90.867188 302.417969 C 91.074219 302.726562 91.308594 303.011719 91.574219 303.277344 C 91.835938 303.539062 92.121094 303.773438 92.429688 303.980469 C 92.738281 304.1875 93.066406 304.359375 93.410156 304.503906 C 93.753906 304.644531 94.109375 304.753906 94.472656 304.824219 C 94.835938 304.898438 95.203125 304.933594 95.578125 304.933594 L 260.59375 304.933594 C 260.964844 304.933594 261.332031 304.898438 261.699219 304.824219 C 262.0625 304.753906 262.417969 304.644531 262.757812 304.503906 C 263.101562 304.359375 263.429688 304.1875 263.738281 303.980469 C 264.046875 303.773438 264.332031 303.539062 264.597656 303.277344 C 264.859375 303.011719 265.09375 302.726562 265.300781 302.417969 C 265.507812 302.109375 265.683594 301.78125 265.824219 301.4375 C 265.964844 301.09375 266.074219 300.742188 266.144531 300.375 C 266.21875 300.011719 266.253906 299.644531 266.253906 299.273438 L 266.253906 284.566406 L 279.050781 284.566406 C 279.421875 284.566406 279.789062 284.535156 280.152344 284.464844 C 280.515625 284.394531 280.871094 284.289062 281.214844 284.148438 C 281.558594 284.007812 281.882812 283.835938 282.195312 283.628906 C 282.503906 283.425781 282.789062 283.191406 283.050781 282.929688 C 283.316406 282.667969 283.550781 282.382812 283.757812 282.074219 C 283.964844 281.769531 284.136719 281.441406 284.28125 281.101562 C 284.421875 280.757812 284.53125 280.40625 284.605469 280.042969 C 284.675781 279.675781 284.710938 279.308594 284.710938 278.9375 L 284.710938 122.011719 C 284.714844 121.265625 284.574219 120.546875 284.285156 119.859375 C 284 119.171875 283.589844 118.566406 283.058594 118.042969 Z M 218.199219 91.863281 C 217.714844 91.390625 217.164062 91.023438 216.542969 90.757812 C 216.367188 90.667969 216.183594 90.597656 215.992188 90.539062 C 215.511719 90.398438 215.023438 90.3125 214.523438 90.28125 L 119.695312 90.28125 L 119.695312 81.347656 L 230.371094 81.347656 L 273.351562 124.367188 L 273.351562 273.460938 L 266.253906 273.460938 L 266.253906 142.199219 C 266.269531 142.074219 266.269531 141.953125 266.253906 141.832031 C 266.226562 141.335938 266.128906 140.859375 265.960938 140.394531 C 265.976562 140.210938 265.976562 140.027344 265.960938 139.84375 C 265.695312 139.226562 265.328125 138.671875 264.859375 138.191406 Z M 214.265625 147.859375 L 254.96875 147.859375 L 254.96875 293.609375 L 101.238281 293.609375 L 101.238281 101.496094 L 208.601562 101.496094 L 208.601562 142.199219 C 208.601562 142.570312 208.636719 142.9375 208.710938 143.300781 C 208.785156 143.667969 208.890625 144.019531 209.035156 144.363281 C 209.175781 144.707031 209.351562 145.035156 209.558594 145.34375 C 209.761719 145.652344 209.996094 145.9375 210.261719 146.203125 C 210.523438 146.464844 210.808594 146.699219 211.117188 146.90625 C 211.429688 147.113281 211.753906 147.285156 212.097656 147.429688 C 212.441406 147.570312 212.796875 147.679688 213.160156 147.75 C 213.523438 147.824219 213.894531 147.859375 214.265625 147.859375 Z M 219.925781 109.511719 L 246.953125 136.535156 L 219.925781 136.535156 Z M 219.925781 109.511719 " fill-opacity="1" fill-rule="nonzero"/></g><path fill="#ffffff" d="M 71.457031 220.773438 C 70.4375 219.949219 69.273438 219.546875 67.964844 219.558594 C 67.09375 219.550781 66.265625 219.738281 65.484375 220.121094 C 64.703125 220.5 64.046875 221.039062 63.515625 221.726562 L 50.792969 238.015625 C 50.5625 238.304688 50.363281 238.617188 50.191406 238.945312 C 50.023438 239.273438 49.886719 239.617188 49.789062 239.972656 C 49.6875 240.332031 49.621094 240.695312 49.59375 241.0625 C 49.5625 241.433594 49.570312 241.800781 49.617188 242.167969 C 49.660156 242.535156 49.742188 242.894531 49.855469 243.25 C 49.972656 243.601562 50.121094 243.9375 50.304688 244.257812 C 50.488281 244.582031 50.703125 244.882812 50.945312 245.160156 C 51.1875 245.441406 51.457031 245.695312 51.75 245.921875 C 52.769531 246.742188 53.933594 247.148438 55.242188 247.132812 C 56.109375 247.136719 56.9375 246.945312 57.71875 246.566406 C 58.5 246.183594 59.15625 245.652344 59.691406 244.964844 L 72.414062 228.714844 C 72.644531 228.421875 72.84375 228.109375 73.015625 227.78125 C 73.183594 227.449219 73.320312 227.105469 73.421875 226.746094 C 73.523438 226.390625 73.585938 226.023438 73.617188 225.652344 C 73.644531 225.28125 73.636719 224.914062 73.59375 224.542969 C 73.546875 224.175781 73.46875 223.8125 73.351562 223.460938 C 73.234375 223.105469 73.085938 222.765625 72.902344 222.445312 C 72.71875 222.121094 72.503906 221.816406 72.261719 221.535156 C 72.019531 221.253906 71.75 221 71.457031 220.773438 Z M 71.457031 220.773438 " fill-opacity="1" fill-rule="nonzero"/><path fill="#ffffff" d="M 303.941406 174.332031 C 305.023438 175.179688 306.246094 175.585938 307.621094 175.546875 C 308.488281 175.554688 309.316406 175.367188 310.097656 174.984375 C 310.882812 174.605469 311.539062 174.066406 312.066406 173.378906 L 324.789062 157.125 C 325.121094 156.710938 325.382812 156.257812 325.585938 155.765625 C 325.785156 155.277344 325.917969 154.765625 325.972656 154.238281 C 326.03125 153.710938 326.011719 153.1875 325.921875 152.664062 C 325.832031 152.140625 325.667969 151.644531 325.4375 151.167969 C 325.203125 150.6875 324.910156 150.253906 324.554688 149.859375 C 324.199219 149.46875 323.796875 149.132812 323.34375 148.851562 C 322.894531 148.570312 322.414062 148.359375 321.902344 148.21875 C 321.390625 148.074219 320.871094 148.003906 320.339844 148.007812 C 319.476562 148.007812 318.652344 148.195312 317.875 148.566406 C 317.09375 148.941406 316.433594 149.464844 315.890625 150.140625 L 303.171875 166.390625 C 302.9375 166.679688 302.730469 166.984375 302.558594 167.3125 C 302.382812 167.636719 302.242188 167.980469 302.136719 168.332031 C 302.027344 168.6875 301.957031 169.046875 301.921875 169.417969 C 301.882812 169.785156 301.882812 170.152344 301.917969 170.523438 C 301.957031 170.890625 302.027344 171.25 302.132812 171.605469 C 302.242188 171.960938 302.378906 172.300781 302.554688 172.628906 C 302.726562 172.953125 302.929688 173.261719 303.164062 173.546875 C 303.398438 173.835938 303.65625 174.097656 303.941406 174.332031 Z M 303.941406 174.332031 " fill-opacity="1" fill-rule="nonzero"/><path fill="#ffffff" d="M 163.378906 162.679688 L 194.59375 162.679688 C 194.964844 162.675781 195.332031 162.640625 195.699219 162.566406 C 196.0625 162.496094 196.414062 162.386719 196.757812 162.246094 C 197.101562 162.101562 197.429688 161.929688 197.738281 161.722656 C 198.046875 161.515625 198.332031 161.28125 198.59375 161.015625 C 198.855469 160.753906 199.089844 160.46875 199.296875 160.160156 C 199.503906 159.851562 199.679688 159.523438 199.820312 159.179688 C 199.960938 158.839844 200.070312 158.484375 200.140625 158.121094 C 200.214844 157.753906 200.25 157.386719 200.25 157.015625 C 200.25 156.644531 200.214844 156.277344 200.140625 155.910156 C 200.070312 155.546875 199.960938 155.191406 199.820312 154.851562 C 199.679688 154.507812 199.503906 154.179688 199.296875 153.871094 C 199.089844 153.5625 198.855469 153.277344 198.59375 153.015625 C 198.332031 152.75 198.046875 152.515625 197.738281 152.308594 C 197.429688 152.101562 197.101562 151.929688 196.757812 151.785156 C 196.414062 151.644531 196.0625 151.535156 195.699219 151.464844 C 195.332031 151.390625 194.964844 151.355469 194.59375 151.351562 L 163.378906 151.351562 C 163.007812 151.355469 162.636719 151.390625 162.273438 151.464844 C 161.910156 151.535156 161.554688 151.644531 161.210938 151.785156 C 160.867188 151.929688 160.542969 152.101562 160.234375 152.308594 C 159.925781 152.515625 159.640625 152.75 159.378906 153.015625 C 159.113281 153.277344 158.878906 153.5625 158.671875 153.871094 C 158.46875 154.179688 158.292969 154.507812 158.152344 154.851562 C 158.007812 155.191406 157.902344 155.546875 157.828125 155.910156 C 157.757812 156.277344 157.71875 156.644531 157.71875 157.015625 C 157.71875 157.386719 157.757812 157.753906 157.828125 158.121094 C 157.902344 158.484375 158.007812 158.839844 158.152344 159.179688 C 158.292969 159.523438 158.46875 159.851562 158.671875 160.160156 C 158.878906 160.46875 159.113281 160.753906 159.378906 161.015625 C 159.640625 161.28125 159.925781 161.515625 160.234375 161.722656 C 160.542969 161.929688 160.867188 162.101562 161.210938 162.246094 C 161.554688 162.386719 161.910156 162.496094 162.273438 162.566406 C 162.636719 162.640625 163.007812 162.675781 163.378906 162.679688 Z M 163.378906 162.679688 " fill-opacity="1" fill-rule="nonzero"/><path fill="#ffffff" d="M 63.773438 197.570312 C 63.773438 197.199219 63.734375 196.832031 63.664062 196.464844 C 63.589844 196.101562 63.484375 195.746094 63.339844 195.402344 C 63.199219 195.0625 63.023438 194.734375 62.816406 194.425781 C 62.613281 194.117188 62.375 193.828125 62.113281 193.566406 C 61.851562 193.304688 61.566406 193.070312 61.253906 192.863281 C 60.945312 192.65625 60.621094 192.480469 60.277344 192.339844 C 59.933594 192.199219 59.578125 192.089844 59.214844 192.015625 C 58.851562 191.945312 58.480469 191.910156 58.109375 191.910156 L 36.34375 191.910156 C 35.972656 191.90625 35.601562 191.945312 35.238281 192.015625 C 34.871094 192.089844 34.519531 192.195312 34.171875 192.335938 C 33.828125 192.480469 33.503906 192.652344 33.195312 192.859375 C 32.882812 193.066406 32.597656 193.300781 32.335938 193.5625 C 32.070312 193.828125 31.835938 194.113281 31.628906 194.421875 C 31.421875 194.730469 31.246094 195.058594 31.105469 195.402344 C 30.960938 195.746094 30.855469 196.101562 30.78125 196.464844 C 30.710938 196.832031 30.671875 197.199219 30.671875 197.570312 C 30.671875 197.941406 30.710938 198.3125 30.78125 198.675781 C 30.855469 199.042969 30.960938 199.394531 31.105469 199.738281 C 31.246094 200.082031 31.421875 200.410156 31.628906 200.71875 C 31.835938 201.027344 32.070312 201.316406 32.335938 201.578125 C 32.597656 201.839844 32.882812 202.074219 33.195312 202.28125 C 33.503906 202.488281 33.828125 202.664062 34.171875 202.804688 C 34.519531 202.945312 34.871094 203.054688 35.238281 203.125 C 35.601562 203.199219 35.972656 203.234375 36.34375 203.234375 L 58.148438 203.234375 C 58.515625 203.230469 58.882812 203.191406 59.246094 203.117188 C 59.609375 203.042969 59.960938 202.933594 60.300781 202.792969 C 60.644531 202.648438 60.96875 202.472656 61.273438 202.265625 C 61.582031 202.058594 61.867188 201.824219 62.125 201.5625 C 62.386719 201.300781 62.621094 201.015625 62.824219 200.707031 C 63.03125 200.398438 63.203125 200.070312 63.34375 199.730469 C 63.484375 199.386719 63.59375 199.035156 63.664062 198.671875 C 63.734375 198.308594 63.773438 197.941406 63.773438 197.570312 Z M 63.773438 197.570312 " fill-opacity="1" fill-rule="nonzero"/><path fill="#ffffff" d="M 163.378906 143.558594 L 194.59375 143.558594 C 194.964844 143.558594 195.332031 143.523438 195.699219 143.449219 C 196.0625 143.378906 196.417969 143.269531 196.761719 143.128906 C 197.105469 142.984375 197.429688 142.8125 197.738281 142.605469 C 198.046875 142.398438 198.335938 142.164062 198.597656 141.898438 C 198.859375 141.636719 199.09375 141.351562 199.300781 141.042969 C 199.507812 140.734375 199.683594 140.40625 199.824219 140.0625 C 199.96875 139.71875 200.074219 139.367188 200.148438 139 C 200.21875 138.636719 200.257812 138.269531 200.257812 137.894531 C 200.257812 137.523438 200.21875 137.15625 200.148438 136.792969 C 200.074219 136.425781 199.96875 136.074219 199.824219 135.730469 C 199.683594 135.386719 199.507812 135.058594 199.300781 134.75 C 199.09375 134.441406 198.859375 134.15625 198.597656 133.890625 C 198.335938 133.628906 198.046875 133.394531 197.738281 133.1875 C 197.429688 132.980469 197.105469 132.808594 196.761719 132.664062 C 196.417969 132.523438 196.0625 132.414062 195.699219 132.34375 C 195.332031 132.269531 194.964844 132.234375 194.59375 132.234375 L 163.378906 132.234375 C 163.003906 132.234375 162.636719 132.269531 162.273438 132.34375 C 161.90625 132.414062 161.554688 132.523438 161.210938 132.664062 C 160.867188 132.808594 160.539062 132.980469 160.230469 133.1875 C 159.921875 133.394531 159.636719 133.628906 159.375 133.890625 C 159.109375 134.15625 158.875 134.441406 158.667969 134.75 C 158.460938 135.058594 158.289062 135.386719 158.144531 135.730469 C 158.003906 136.074219 157.894531 136.425781 157.824219 136.792969 C 157.75 137.15625 157.714844 137.523438 157.714844 137.894531 C 157.714844 138.269531 157.75 138.636719 157.824219 139 C 157.894531 139.367188 158.003906 139.71875 158.144531 140.0625 C 158.289062 140.40625 158.460938 140.734375 158.667969 141.042969 C 158.875 141.351562 159.109375 141.636719 159.375 141.898438 C 159.636719 142.164062 159.921875 142.398438 160.230469 142.605469 C 160.539062 142.8125 160.867188 142.984375 161.210938 143.128906 C 161.554688 143.269531 161.90625 143.378906 162.273438 143.449219 C 162.636719 143.523438 163.003906 143.558594 163.378906 143.558594 Z M 163.378906 143.558594 " fill-opacity="1" fill-rule="nonzero"/><path fill="#ffffff" d="M 157.75 192.019531 C 157.75 192.390625 157.789062 192.757812 157.859375 193.121094 C 157.933594 193.480469 158.039062 193.835938 158.179688 194.175781 C 158.320312 194.519531 158.492188 194.84375 158.699219 195.152344 C 158.902344 195.460938 159.136719 195.746094 159.398438 196.011719 C 159.660156 196.273438 159.941406 196.507812 160.25 196.714844 C 160.554688 196.921875 160.878906 197.097656 161.222656 197.238281 C 161.5625 197.382812 161.914062 197.492188 162.277344 197.566406 C 162.640625 197.640625 163.007812 197.679688 163.378906 197.679688 L 229.558594 197.679688 C 229.933594 197.679688 230.300781 197.644531 230.664062 197.574219 C 231.03125 197.5 231.382812 197.394531 231.726562 197.25 C 232.070312 197.109375 232.398438 196.933594 232.707031 196.726562 C 233.015625 196.519531 233.300781 196.285156 233.5625 196.023438 C 233.828125 195.761719 234.0625 195.472656 234.269531 195.164062 C 234.476562 194.855469 234.648438 194.53125 234.792969 194.1875 C 234.933594 193.84375 235.042969 193.488281 235.113281 193.125 C 235.1875 192.757812 235.222656 192.390625 235.222656 192.019531 C 235.222656 191.648438 235.1875 191.277344 235.113281 190.914062 C 235.042969 190.550781 234.933594 190.195312 234.792969 189.851562 C 234.648438 189.507812 234.476562 189.183594 234.269531 188.875 C 234.0625 188.5625 233.828125 188.277344 233.5625 188.015625 C 233.300781 187.753906 233.015625 187.515625 232.707031 187.3125 C 232.398438 187.105469 232.070312 186.929688 231.726562 186.789062 C 231.382812 186.644531 231.03125 186.539062 230.664062 186.464844 C 230.300781 186.394531 229.933594 186.355469 229.558594 186.355469 L 163.378906 186.355469 C 163.007812 186.359375 162.640625 186.398438 162.277344 186.472656 C 161.914062 186.546875 161.5625 186.65625 161.222656 186.796875 C 160.878906 186.941406 160.554688 187.117188 160.25 187.324219 C 159.941406 187.53125 159.660156 187.765625 159.398438 188.027344 C 159.136719 188.289062 158.902344 188.578125 158.699219 188.882812 C 158.492188 189.191406 158.320312 189.519531 158.179688 189.859375 C 158.039062 190.203125 157.933594 190.554688 157.859375 190.917969 C 157.789062 191.28125 157.75 191.648438 157.75 192.019531 Z M 157.75 192.019531 " fill-opacity="1" fill-rule="nonzero"/><path fill="#ffffff" d="M 229.707031 205.660156 L 163.523438 205.660156 C 163.152344 205.660156 162.785156 205.695312 162.417969 205.769531 C 162.054688 205.839844 161.699219 205.949219 161.359375 206.089844 C 161.015625 206.234375 160.6875 206.40625 160.378906 206.613281 C 160.070312 206.820312 159.785156 207.054688 159.519531 207.320312 C 159.257812 207.582031 159.023438 207.867188 158.816406 208.175781 C 158.609375 208.484375 158.433594 208.8125 158.292969 209.15625 C 158.152344 209.5 158.042969 209.851562 157.972656 210.21875 C 157.898438 210.582031 157.863281 210.949219 157.863281 211.324219 C 157.863281 211.695312 157.898438 212.0625 157.972656 212.425781 C 158.042969 212.792969 158.152344 213.144531 158.292969 213.488281 C 158.433594 213.832031 158.609375 214.160156 158.816406 214.46875 C 159.023438 214.777344 159.257812 215.0625 159.519531 215.328125 C 159.785156 215.589844 160.070312 215.824219 160.378906 216.03125 C 160.6875 216.238281 161.015625 216.410156 161.359375 216.554688 C 161.699219 216.695312 162.054688 216.804688 162.417969 216.875 C 162.785156 216.949219 163.152344 216.984375 163.523438 216.984375 L 229.707031 216.984375 C 230.078125 216.984375 230.449219 216.949219 230.8125 216.875 C 231.175781 216.804688 231.53125 216.695312 231.875 216.554688 C 232.21875 216.410156 232.542969 216.238281 232.851562 216.03125 C 233.164062 215.824219 233.449219 215.589844 233.710938 215.328125 C 233.972656 215.0625 234.207031 214.777344 234.414062 214.46875 C 234.621094 214.160156 234.796875 213.832031 234.9375 213.488281 C 235.082031 213.144531 235.1875 212.792969 235.261719 212.425781 C 235.332031 212.0625 235.371094 211.695312 235.371094 211.324219 C 235.371094 210.949219 235.332031 210.582031 235.261719 210.21875 C 235.1875 209.851562 235.082031 209.5 234.9375 209.15625 C 234.796875 208.8125 234.621094 208.484375 234.414062 208.175781 C 234.207031 207.867188 233.972656 207.582031 233.710938 207.320312 C 233.449219 207.054688 233.164062 206.820312 232.851562 206.613281 C 232.542969 206.40625 232.21875 206.234375 231.875 206.089844 C 231.53125 205.949219 231.175781 205.839844 230.8125 205.769531 C 230.449219 205.695312 230.078125 205.660156 229.707031 205.660156 Z M 229.707031 205.660156 " fill-opacity="1" fill-rule="nonzero"/><path fill="#ffffff" d="M 59.691406 150.175781 C 59.160156 149.488281 58.503906 148.949219 57.722656 148.570312 C 56.9375 148.1875 56.113281 148 55.242188 148.007812 C 54.710938 148.003906 54.191406 148.074219 53.679688 148.21875 C 53.171875 148.359375 52.6875 148.570312 52.238281 148.851562 C 51.789062 149.132812 51.382812 149.46875 51.027344 149.859375 C 50.671875 150.253906 50.378906 150.6875 50.148438 151.167969 C 49.914062 151.644531 49.753906 152.140625 49.660156 152.664062 C 49.570312 153.1875 49.550781 153.710938 49.609375 154.238281 C 49.667969 154.765625 49.796875 155.277344 49.996094 155.765625 C 50.199219 156.257812 50.464844 156.710938 50.792969 157.125 L 63.515625 173.378906 C 64.046875 174.066406 64.703125 174.605469 65.484375 174.984375 C 66.265625 175.367188 67.09375 175.554688 67.964844 175.546875 C 68.496094 175.546875 69.015625 175.472656 69.523438 175.324219 C 70.035156 175.179688 70.515625 174.964844 70.964844 174.683594 C 71.414062 174.402344 71.816406 174.0625 72.167969 173.667969 C 72.523438 173.273438 72.816406 172.835938 73.050781 172.359375 C 73.28125 171.882812 73.441406 171.382812 73.535156 170.859375 C 73.625 170.335938 73.644531 169.8125 73.585938 169.285156 C 73.53125 168.757812 73.402344 168.246094 73.203125 167.753906 C 73.003906 167.265625 72.738281 166.808594 72.414062 166.390625 Z M 59.691406 150.175781 " fill-opacity="1" fill-rule="nonzero"/><path fill="#ffffff" d="M 311.882812 221.765625 C 311.355469 221.074219 310.699219 220.539062 309.914062 220.15625 C 309.132812 219.773438 308.304688 219.589844 307.433594 219.59375 C 306.058594 219.535156 304.832031 219.941406 303.757812 220.808594 C 303.46875 221.035156 303.203125 221.289062 302.960938 221.570312 C 302.71875 221.851562 302.507812 222.152344 302.328125 222.476562 C 302.144531 222.796875 301.996094 223.132812 301.882812 223.484375 C 301.765625 223.835938 301.6875 224.195312 301.640625 224.5625 C 301.597656 224.929688 301.589844 225.296875 301.617188 225.667969 C 301.644531 226.035156 301.710938 226.398438 301.808594 226.753906 C 301.910156 227.109375 302.042969 227.453125 302.210938 227.78125 C 302.375 228.113281 302.574219 228.421875 302.800781 228.714844 L 315.523438 244.964844 C 316.058594 245.652344 316.714844 246.183594 317.496094 246.566406 C 318.277344 246.945312 319.105469 247.136719 319.972656 247.132812 C 321.355469 247.199219 322.578125 246.796875 323.648438 245.921875 C 323.945312 245.691406 324.210938 245.4375 324.457031 245.15625 C 324.699219 244.875 324.914062 244.574219 325.097656 244.25 C 325.277344 243.925781 325.429688 243.585938 325.546875 243.234375 C 325.660156 242.878906 325.742188 242.519531 325.785156 242.148438 C 325.832031 241.78125 325.839844 241.410156 325.808594 241.039062 C 325.78125 240.667969 325.714844 240.304688 325.613281 239.945312 C 325.511719 239.589844 325.378906 239.242188 325.207031 238.914062 C 325.039062 238.582031 324.835938 238.269531 324.605469 237.980469 Z M 311.882812 221.765625 " fill-opacity="1" fill-rule="nonzero"/><path fill="#ffffff" d="M 229.707031 240.664062 L 163.523438 240.664062 C 163.152344 240.664062 162.785156 240.699219 162.421875 240.773438 C 162.058594 240.847656 161.703125 240.953125 161.359375 241.097656 C 161.019531 241.238281 160.691406 241.414062 160.382812 241.621094 C 160.074219 241.828125 159.789062 242.0625 159.527344 242.324219 C 159.265625 242.589844 159.03125 242.875 158.824219 243.183594 C 158.621094 243.492188 158.445312 243.816406 158.304688 244.160156 C 158.160156 244.503906 158.054688 244.859375 157.980469 245.222656 C 157.910156 245.585938 157.875 245.953125 157.875 246.324219 C 157.875 246.695312 157.910156 247.066406 157.980469 247.429688 C 158.054688 247.792969 158.160156 248.148438 158.304688 248.488281 C 158.445312 248.832031 158.621094 249.160156 158.824219 249.46875 C 159.03125 249.777344 159.265625 250.0625 159.527344 250.324219 C 159.789062 250.589844 160.074219 250.824219 160.382812 251.03125 C 160.691406 251.238281 161.019531 251.410156 161.359375 251.554688 C 161.703125 251.695312 162.058594 251.804688 162.421875 251.878906 C 162.785156 251.949219 163.152344 251.988281 163.523438 251.988281 L 229.707031 251.988281 C 230.078125 251.988281 230.449219 251.953125 230.8125 251.878906 C 231.175781 251.808594 231.53125 251.699219 231.875 251.558594 C 232.21875 251.414062 232.542969 251.242188 232.851562 251.035156 C 233.164062 250.828125 233.449219 250.59375 233.710938 250.328125 C 233.972656 250.066406 234.207031 249.78125 234.414062 249.472656 C 234.621094 249.164062 234.796875 248.835938 234.9375 248.492188 C 235.082031 248.148438 235.1875 247.796875 235.261719 247.429688 C 235.332031 247.066406 235.371094 246.699219 235.371094 246.324219 C 235.371094 245.953125 235.332031 245.585938 235.261719 245.222656 C 235.1875 244.855469 235.082031 244.503906 234.9375 244.160156 C 234.796875 243.816406 234.621094 243.488281 234.414062 243.179688 C 234.207031 242.871094 233.972656 242.585938 233.710938 242.320312 C 233.449219 242.058594 233.164062 241.824219 232.851562 241.617188 C 232.542969 241.410156 232.21875 241.238281 231.875 241.09375 C 231.53125 240.953125 231.175781 240.84375 230.8125 240.773438 C 230.449219 240.699219 230.078125 240.664062 229.707031 240.664062 Z M 229.707031 240.664062 " fill-opacity="1" fill-rule="nonzero"/><path fill="#ffffff" d="M 339.054688 191.910156 L 317.253906 191.910156 C 316.878906 191.910156 316.511719 191.945312 316.148438 192.015625 C 315.785156 192.089844 315.429688 192.199219 315.085938 192.339844 C 314.742188 192.480469 314.414062 192.65625 314.105469 192.863281 C 313.796875 193.070312 313.511719 193.304688 313.25 193.566406 C 312.984375 193.828125 312.75 194.117188 312.542969 194.425781 C 312.339844 194.734375 312.164062 195.0625 312.019531 195.402344 C 311.878906 195.746094 311.773438 196.101562 311.699219 196.464844 C 311.625 196.832031 311.589844 197.199219 311.589844 197.570312 C 311.589844 197.941406 311.625 198.3125 311.699219 198.675781 C 311.773438 199.039062 311.878906 199.394531 312.019531 199.738281 C 312.164062 200.082031 312.339844 200.40625 312.542969 200.71875 C 312.75 201.027344 312.984375 201.3125 313.25 201.574219 C 313.511719 201.835938 313.796875 202.074219 314.105469 202.277344 C 314.414062 202.484375 314.742188 202.660156 315.085938 202.800781 C 315.429688 202.945312 315.785156 203.050781 316.148438 203.125 C 316.511719 203.195312 316.878906 203.234375 317.253906 203.234375 L 339.054688 203.234375 C 339.429688 203.234375 339.796875 203.195312 340.160156 203.125 C 340.527344 203.050781 340.878906 202.945312 341.222656 202.800781 C 341.566406 202.660156 341.894531 202.484375 342.203125 202.277344 C 342.511719 202.074219 342.796875 201.835938 343.058594 201.574219 C 343.324219 201.3125 343.558594 201.027344 343.765625 200.71875 C 343.972656 200.40625 344.144531 200.082031 344.289062 199.738281 C 344.429688 199.394531 344.539062 199.039062 344.609375 198.675781 C 344.683594 198.3125 344.71875 197.941406 344.71875 197.570312 C 344.71875 197.199219 344.683594 196.832031 344.609375 196.464844 C 344.539062 196.101562 344.429688 195.746094 344.289062 195.402344 C 344.144531 195.0625 343.972656 194.734375 343.765625 194.425781 C 343.558594 194.117188 343.324219 193.828125 343.058594 193.566406 C 342.796875 193.304688 342.511719 193.070312 342.203125 192.863281 C 341.894531 192.65625 341.566406 192.480469 341.222656 192.339844 C 340.878906 192.199219 340.527344 192.089844 340.160156 192.015625 C 339.796875 191.945312 339.429688 191.910156 339.054688 191.910156 Z M 339.054688 191.910156 " fill-opacity="1" fill-rule="nonzero"/><path fill="#ffffff" d="M 143.449219 180.105469 C 142.625 179.699219 141.757812 179.492188 140.839844 179.480469 C 140.320312 179.480469 139.816406 179.550781 139.316406 179.691406 C 138.820312 179.832031 138.351562 180.035156 137.910156 180.304688 C 137.46875 180.574219 137.070312 180.898438 136.71875 181.277344 C 136.367188 181.65625 136.074219 182.074219 135.839844 182.53125 L 125.800781 201.800781 L 120.984375 195.878906 C 120.4375 195.226562 119.777344 194.71875 119.007812 194.359375 C 118.234375 194 117.421875 193.820312 116.570312 193.820312 C 115.183594 193.789062 113.960938 194.21875 112.894531 195.109375 C 112.609375 195.34375 112.347656 195.601562 112.113281 195.890625 C 111.878906 196.175781 111.671875 196.480469 111.496094 196.808594 C 111.320312 197.132812 111.179688 197.472656 111.070312 197.828125 C 110.964844 198.183594 110.890625 198.542969 110.851562 198.910156 C 110.816406 199.28125 110.8125 199.648438 110.847656 200.015625 C 110.882812 200.386719 110.953125 200.746094 111.058594 201.101562 C 111.164062 201.457031 111.304688 201.800781 111.476562 202.125 C 111.648438 202.453125 111.851562 202.761719 112.085938 203.050781 L 122.601562 215.585938 C 123.140625 216.242188 123.792969 216.753906 124.558594 217.121094 C 125.320312 217.488281 126.128906 217.675781 126.976562 217.683594 L 127.566406 217.683594 C 128.511719 217.582031 129.378906 217.265625 130.167969 216.734375 C 130.957031 216.199219 131.570312 215.511719 132.015625 214.667969 L 145.875 187.679688 C 146.039062 187.351562 146.171875 187.007812 146.269531 186.65625 C 146.367188 186.300781 146.429688 185.9375 146.457031 185.570312 C 146.484375 185.207031 146.476562 184.839844 146.433594 184.472656 C 146.390625 184.109375 146.3125 183.75 146.203125 183.398438 C 146.089844 183.050781 145.945312 182.714844 145.769531 182.390625 C 145.589844 182.070312 145.382812 181.765625 145.148438 181.484375 C 144.910156 181.203125 144.652344 180.945312 144.363281 180.710938 C 144.078125 180.480469 143.773438 180.277344 143.449219 180.105469 Z M 143.449219 180.105469 " fill-opacity="1" fill-rule="nonzero"/><path fill="#ffffff" d="M 143.449219 238.492188 C 142.632812 238.058594 141.761719 237.839844 140.839844 237.832031 C 140.324219 237.835938 139.816406 237.910156 139.320312 238.050781 C 138.824219 238.191406 138.355469 238.398438 137.917969 238.667969 C 137.476562 238.933594 137.078125 239.257812 136.726562 239.632812 C 136.375 240.011719 136.078125 240.425781 135.839844 240.882812 L 125.800781 260.152344 L 120.984375 254.269531 C 120.742188 253.980469 120.476562 253.71875 120.183594 253.480469 C 119.890625 253.246094 119.574219 253.039062 119.242188 252.867188 C 118.910156 252.691406 118.5625 252.550781 118.199219 252.445312 C 117.839844 252.339844 117.472656 252.269531 117.097656 252.238281 C 116.722656 252.203125 116.347656 252.207031 115.972656 252.25 C 115.601562 252.289062 115.234375 252.367188 114.875 252.476562 C 114.515625 252.589844 114.171875 252.738281 113.839844 252.917969 C 113.511719 253.097656 113.203125 253.308594 112.914062 253.550781 C 112.625 253.792969 112.363281 254.058594 112.125 254.351562 C 111.890625 254.644531 111.6875 254.957031 111.511719 255.292969 C 111.335938 255.625 111.199219 255.972656 111.089844 256.332031 C 110.984375 256.695312 110.917969 257.0625 110.882812 257.4375 C 110.851562 257.8125 110.851562 258.1875 110.894531 258.5625 C 110.933594 258.933594 111.011719 259.300781 111.125 259.660156 C 111.234375 260.019531 111.382812 260.363281 111.5625 260.695312 C 111.742188 261.023438 111.953125 261.332031 112.195312 261.621094 L 122.601562 273.976562 C 123.140625 274.625 123.792969 275.132812 124.558594 275.492188 C 125.324219 275.851562 126.132812 276.03125 126.976562 276.035156 L 127.566406 276.035156 C 128.515625 275.941406 129.382812 275.628906 130.171875 275.09375 C 130.960938 274.558594 131.574219 273.867188 132.015625 273.019531 L 146.023438 246.140625 C 146.191406 245.808594 146.328125 245.457031 146.425781 245.097656 C 146.527344 244.734375 146.589844 244.367188 146.617188 243.992188 C 146.644531 243.617188 146.636719 243.242188 146.585938 242.871094 C 146.539062 242.5 146.457031 242.136719 146.335938 241.777344 C 146.21875 241.421875 146.0625 241.082031 145.875 240.757812 C 145.6875 240.433594 145.472656 240.128906 145.222656 239.847656 C 144.976562 239.566406 144.703125 239.308594 144.402344 239.082031 C 144.105469 238.855469 143.785156 238.660156 143.449219 238.492188 Z M 143.449219 238.492188 " fill-opacity="1" fill-rule="nonzero"/><path fill="#ffffff" d="M 229.707031 259.964844 L 163.523438 259.964844 C 163.152344 259.96875 162.785156 260.003906 162.421875 260.078125 C 162.058594 260.152344 161.703125 260.257812 161.359375 260.402344 C 161.019531 260.542969 160.691406 260.71875 160.382812 260.925781 C 160.074219 261.132812 159.789062 261.367188 159.527344 261.628906 C 159.265625 261.890625 159.03125 262.179688 158.824219 262.488281 C 158.621094 262.796875 158.445312 263.121094 158.304688 263.464844 C 158.160156 263.808594 158.054688 264.160156 157.980469 264.527344 C 157.910156 264.890625 157.875 265.257812 157.875 265.628906 C 157.875 266 157.910156 266.367188 157.980469 266.730469 C 158.054688 267.097656 158.160156 267.449219 158.304688 267.792969 C 158.445312 268.136719 158.621094 268.460938 158.824219 268.769531 C 159.03125 269.082031 159.265625 269.367188 159.527344 269.628906 C 159.789062 269.890625 160.074219 270.125 160.382812 270.332031 C 160.691406 270.539062 161.019531 270.714844 161.359375 270.855469 C 161.703125 271 162.058594 271.109375 162.421875 271.179688 C 162.785156 271.253906 163.152344 271.289062 163.523438 271.292969 L 229.707031 271.292969 C 230.078125 271.292969 230.449219 271.253906 230.8125 271.183594 C 231.175781 271.109375 231.53125 271.003906 231.875 270.859375 C 232.21875 270.71875 232.542969 270.542969 232.851562 270.335938 C 233.164062 270.128906 233.449219 269.894531 233.710938 269.632812 C 233.972656 269.371094 234.207031 269.085938 234.414062 268.773438 C 234.621094 268.464844 234.796875 268.140625 234.9375 267.796875 C 235.082031 267.453125 235.1875 267.097656 235.261719 266.734375 C 235.332031 266.367188 235.371094 266 235.371094 265.628906 C 235.371094 265.257812 235.332031 264.890625 235.261719 264.523438 C 235.1875 264.160156 235.082031 263.804688 234.9375 263.460938 C 234.796875 263.117188 234.621094 262.792969 234.414062 262.484375 C 234.207031 262.175781 233.972656 261.886719 233.710938 261.625 C 233.449219 261.363281 233.164062 261.128906 232.851562 260.921875 C 232.542969 260.714844 232.21875 260.539062 231.875 260.398438 C 231.53125 260.253906 231.175781 260.148438 230.8125 260.074219 C 230.449219 260.003906 230.078125 259.964844 229.707031 259.964844 Z M 229.707031 259.964844 " fill-opacity="1" fill-rule="nonzero"/><path fill="#ffffff" d="M 143.449219 121.753906 C 142.675781 121.351562 141.855469 121.144531 140.984375 121.128906 C 140.484375 121.058594 139.980469 121.058594 139.476562 121.128906 C 138.476562 121.40625 137.621094 121.921875 136.902344 122.675781 C 136.523438 123.050781 136.214844 123.476562 135.984375 123.960938 L 125.800781 143.558594 L 120.984375 137.675781 C 120.75 137.386719 120.488281 137.125 120.199219 136.886719 C 119.914062 136.648438 119.605469 136.445312 119.277344 136.265625 C 118.949219 136.089844 118.609375 135.949219 118.25 135.839844 C 117.894531 135.730469 117.53125 135.65625 117.160156 135.617188 C 116.792969 135.582031 116.421875 135.578125 116.050781 135.617188 C 115.679688 135.652344 115.316406 135.722656 114.960938 135.828125 C 114.601562 135.9375 114.261719 136.078125 113.929688 136.25 C 113.601562 136.425781 113.292969 136.632812 113.003906 136.867188 C 112.714844 137.101562 112.453125 137.363281 112.214844 137.652344 C 111.980469 137.9375 111.773438 138.246094 111.597656 138.574219 C 111.417969 138.902344 111.277344 139.242188 111.167969 139.597656 C 111.058594 139.953125 110.984375 140.316406 110.949219 140.6875 C 110.910156 141.058594 110.910156 141.429688 110.945312 141.800781 C 110.980469 142.171875 111.050781 142.535156 111.160156 142.890625 C 111.265625 143.246094 111.40625 143.589844 111.582031 143.917969 C 111.753906 144.25 111.960938 144.558594 112.195312 144.84375 L 122.601562 157.234375 C 123.140625 157.886719 123.792969 158.394531 124.558594 158.753906 C 125.324219 159.113281 126.132812 159.292969 126.976562 159.296875 L 127.566406 159.296875 C 128.515625 159.203125 129.382812 158.886719 130.171875 158.351562 C 130.960938 157.820312 131.574219 157.128906 132.015625 156.28125 L 146.023438 129.402344 C 146.191406 129.066406 146.328125 128.71875 146.425781 128.355469 C 146.527344 127.996094 146.589844 127.628906 146.617188 127.253906 C 146.644531 126.878906 146.636719 126.503906 146.585938 126.132812 C 146.539062 125.761719 146.457031 125.394531 146.335938 125.039062 C 146.21875 124.683594 146.0625 124.34375 145.875 124.019531 C 145.6875 123.691406 145.472656 123.390625 145.222656 123.105469 C 144.976562 122.824219 144.703125 122.570312 144.402344 122.34375 C 144.105469 122.113281 143.785156 121.917969 143.449219 121.753906 Z M 143.449219 121.753906 " fill-opacity="1" fill-rule="nonzero"/></svg>