<svg xmlns="http://www.w3.org/2000/svg" xmlns:xlink="http://www.w3.org/1999/xlink" width="594" zoomAndPan="magnify" viewBox="0 0 445.5 137.249994" height="183" preserveAspectRatio="xMidYMid meet" version="1.0"><defs><g/><clipPath id="02d542066a"><path d="M 7.121094 6.160156 L 131.308594 6.160156 L 131.308594 130.34375 L 7.121094 130.34375 Z M 7.121094 6.160156 " clip-rule="nonzero"/></clipPath><clipPath id="f27d592cdd"><path d="M 36 28.28125 L 103 28.28125 L 103 108.355469 L 36 108.355469 Z M 36 28.28125 " clip-rule="nonzero"/></clipPath><clipPath id="0000fbfab5"><path d="M 15.46875 69 L 28 69 L 28 74 L 15.46875 74 Z M 15.46875 69 " clip-rule="nonzero"/></clipPath><clipPath id="63a4834637"><path d="M 111 69 L 122.691406 69 L 122.691406 74 L 111 74 Z M 111 69 " clip-rule="nonzero"/></clipPath></defs><g fill="#000000" fill-opacity="1"><g transform="translate(154.121584, 79.456589)"><g><path d="M 44.265625 9.957031 L 33.359375 9.957031 L 33.359375 -13.636719 L 14.332031 -13.636719 L 14.332031 9.957031 L 3.425781 9.957031 L 3.425781 -42.808594 L 14.332031 -42.808594 L 14.332031 -23.273438 L 33.359375 -23.273438 L 33.359375 -42.808594 L 44.265625 -42.808594 Z M 44.265625 9.957031 "/></g></g></g><g fill="#000000" fill-opacity="1"><g transform="translate(201.811765, 79.456589)"><g><path d="M 14.332031 9.957031 C 10.90625 9.957031 8.246094 9.132812 6.339844 7.609375 C 4.375 6.023438 3.425781 3.613281 3.425781 0.316406 L 3.425781 -2.917969 C 3.425781 -6.214844 4.375 -8.625 6.339844 -10.210938 C 8.246094 -11.730469 10.90625 -12.558594 14.332031 -12.558594 L 23.148438 -12.558594 C 26.191406 -12.558594 28.601562 -11.921875 30.503906 -10.71875 L 30.503906 -16.425781 C 30.503906 -17.628906 30.25 -18.519531 29.871094 -19.152344 C 29.363281 -19.660156 28.410156 -19.976562 26.890625 -19.976562 L 18.136719 -19.976562 C 17.121094 -19.976562 16.425781 -19.660156 15.980469 -19.152344 C 15.472656 -18.519531 15.285156 -17.503906 15.285156 -16.042969 L 4.691406 -16.042969 L 4.691406 -16.867188 C 4.691406 -20.292969 5.644531 -22.957031 7.609375 -24.921875 C 9.511719 -26.824219 12.621094 -27.777344 16.804688 -27.777344 L 28.980469 -27.777344 C 33.167969 -27.777344 36.210938 -26.824219 38.175781 -24.921875 C 40.078125 -22.957031 41.09375 -20.292969 41.09375 -16.867188 L 41.09375 10.589844 L 30.503906 10.589844 L 30.503906 8.117188 C 28.601562 9.324219 26.191406 9.957031 23.148438 9.957031 Z M 27.585938 2.789062 C 29.488281 2.789062 30.503906 1.777344 30.503906 -0.125 L 30.503906 -3.109375 C 30.503906 -5.011719 29.488281 -6.023438 27.585938 -6.023438 L 16.933594 -6.023438 C 14.964844 -6.023438 14.015625 -5.011719 14.015625 -3.109375 L 14.015625 -0.125 C 14.015625 1.777344 14.964844 2.789062 16.933594 2.789062 Z M 27.585938 2.789062 "/></g></g></g><g fill="#000000" fill-opacity="1"><g transform="translate(246.331064, 79.456589)"><g><path d="M 3.425781 -16.867188 C 3.425781 -20.292969 4.375 -22.957031 6.339844 -24.921875 C 8.246094 -26.824219 11.351562 -27.777344 15.539062 -27.777344 L 27.714844 -27.777344 C 31.898438 -27.777344 34.941406 -26.824219 36.910156 -24.921875 C 38.8125 -22.957031 39.828125 -20.292969 39.828125 -16.867188 L 39.828125 -13.570312 L 29.234375 -13.570312 L 29.234375 -16.550781 C 29.234375 -17.820312 28.980469 -18.773438 28.539062 -19.277344 C 28.03125 -19.722656 27.269531 -19.976562 26.382812 -19.976562 L 17.566406 -19.976562 C 16.042969 -19.976562 15.03125 -19.660156 14.648438 -19.152344 C 14.207031 -18.519531 14.015625 -17.628906 14.015625 -16.425781 L 14.015625 -1.394531 C 14.015625 -0.125 14.207031 0.699219 14.648438 1.332031 C 15.03125 1.839844 16.042969 2.15625 17.566406 2.15625 L 26.382812 2.15625 C 27.269531 2.15625 28.03125 1.902344 28.539062 1.457031 C 28.980469 0.953125 29.234375 0 29.234375 -1.269531 L 29.234375 -4.25 L 39.828125 -4.25 L 39.828125 -0.953125 C 39.828125 2.472656 38.8125 5.136719 36.910156 7.101562 C 34.941406 9.003906 31.898438 9.957031 27.714844 9.957031 L 15.539062 9.957031 C 11.351562 9.957031 8.246094 9.003906 6.339844 7.101562 C 4.375 5.136719 3.425781 2.472656 3.425781 -0.953125 Z M 3.425781 -16.867188 "/></g></g></g><g fill="#000000" fill-opacity="1"><g transform="translate(289.581999, 79.456589)"><g><path d="M 14.015625 -42.808594 L 14.015625 -11.984375 L 31.582031 -28.792969 L 44.582031 -28.792969 L 24.414062 -10.019531 L 44.582031 9.957031 L 31.519531 9.957031 L 14.015625 -7.992188 L 14.015625 9.957031 L 3.425781 9.957031 L 3.425781 -42.808594 Z M 14.015625 -42.808594 "/></g></g></g><g fill="#000000" fill-opacity="1"><g transform="translate(337.018518, 79.456589)"><g><path d="M 29.234375 -16.550781 C 29.234375 -17.820312 28.980469 -18.773438 28.539062 -19.277344 C 28.03125 -19.722656 27.269531 -19.976562 26.382812 -19.976562 L 17.566406 -19.976562 C 16.042969 -19.976562 15.03125 -19.660156 14.648438 -19.152344 C 14.207031 -18.519531 14.015625 -17.628906 14.015625 -16.425781 L 14.015625 -1.394531 C 14.015625 -0.125 14.207031 0.699219 14.648438 1.332031 C 15.03125 1.839844 16.042969 2.15625 17.566406 2.15625 L 26.382812 2.15625 C 27.269531 2.15625 28.03125 1.902344 28.539062 1.457031 C 28.980469 0.953125 29.234375 0 29.234375 -1.269531 Z M 39.828125 -0.953125 C 39.828125 2.472656 38.8125 5.136719 36.910156 7.101562 C 34.941406 9.003906 31.898438 9.957031 27.714844 9.957031 L 15.539062 9.957031 C 11.351562 9.957031 8.246094 9.003906 6.339844 7.101562 C 4.375 5.136719 3.425781 2.472656 3.425781 -0.953125 L 3.425781 -16.867188 C 3.425781 -20.292969 4.375 -22.957031 6.339844 -24.921875 C 8.246094 -26.824219 11.351562 -27.777344 15.539062 -27.777344 L 27.714844 -27.777344 C 31.898438 -27.777344 34.941406 -26.824219 36.910156 -24.921875 C 38.8125 -22.957031 39.828125 -20.292969 39.828125 -16.867188 Z M 39.828125 -0.953125 "/></g></g></g><g fill="#000000" fill-opacity="1"><g transform="translate(380.269453, 79.456589)"><g><path d="M 14.015625 -42.808594 L 14.015625 -11.984375 L 31.582031 -28.792969 L 44.582031 -28.792969 L 24.414062 -10.019531 L 44.582031 9.957031 L 31.519531 9.957031 L 14.015625 -7.992188 L 14.015625 9.957031 L 3.425781 9.957031 L 3.425781 -42.808594 Z M 14.015625 -42.808594 "/></g></g></g><g clip-path="url(#02d542066a)"><path fill="#5143d9" d="M 131.308594 68.253906 C 131.308594 70.285156 131.207031 72.3125 131.007812 74.339844 C 130.808594 76.363281 130.511719 78.371094 130.113281 80.367188 C 129.71875 82.359375 129.222656 84.332031 128.632812 86.277344 C 128.042969 88.222656 127.359375 90.136719 126.582031 92.015625 C 125.800781 93.894531 124.933594 95.730469 123.976562 97.523438 C 123.015625 99.316406 121.972656 101.058594 120.84375 102.75 C 119.710938 104.441406 118.503906 106.070312 117.210938 107.644531 C 115.921875 109.214844 114.558594 110.71875 113.121094 112.160156 C 111.683594 113.597656 110.175781 114.960938 108.605469 116.25 C 107.035156 117.539062 105.402344 118.75 103.710938 119.878906 C 102.019531 121.011719 100.277344 122.054688 98.484375 123.011719 C 96.691406 123.972656 94.855469 124.839844 92.976562 125.617188 C 91.097656 126.398438 89.183594 127.082031 87.238281 127.671875 C 85.292969 128.261719 83.324219 128.753906 81.328125 129.152344 C 79.332031 129.546875 77.324219 129.847656 75.300781 130.046875 C 73.277344 130.246094 71.246094 130.34375 69.214844 130.34375 C 67.179688 130.34375 65.152344 130.246094 63.128906 130.046875 C 61.105469 129.847656 59.09375 129.546875 57.101562 129.152344 C 55.105469 128.753906 53.136719 128.261719 51.1875 127.671875 C 49.242188 127.082031 47.332031 126.398438 45.453125 125.617188 C 43.574219 124.839844 41.738281 123.972656 39.945312 123.011719 C 38.148438 122.054688 36.40625 121.011719 34.71875 119.878906 C 33.027344 118.75 31.394531 117.539062 29.824219 116.25 C 28.25 114.960938 26.746094 113.597656 25.308594 112.160156 C 23.871094 110.71875 22.503906 109.214844 21.214844 107.644531 C 19.925781 106.070312 18.714844 104.441406 17.585938 102.75 C 16.457031 101.058594 15.410156 99.316406 14.453125 97.523438 C 13.496094 95.730469 12.625 93.894531 11.847656 92.015625 C 11.070312 90.136719 10.386719 88.222656 9.792969 86.277344 C 9.203125 84.332031 8.710938 82.359375 8.3125 80.367188 C 7.917969 78.371094 7.621094 76.363281 7.417969 74.339844 C 7.21875 72.3125 7.121094 70.285156 7.121094 68.253906 C 7.121094 66.21875 7.21875 64.191406 7.417969 62.164062 C 7.621094 60.140625 7.917969 58.132812 8.3125 56.136719 C 8.710938 54.144531 9.203125 52.171875 9.792969 50.226562 C 10.386719 48.28125 11.070312 46.367188 11.847656 44.488281 C 12.625 42.609375 13.496094 40.773438 14.453125 38.980469 C 15.410156 37.1875 16.457031 35.445312 17.585938 33.753906 C 18.714844 32.0625 19.925781 30.433594 21.214844 28.859375 C 22.503906 27.289062 23.871094 25.785156 25.308594 24.34375 C 26.746094 22.90625 28.25 21.542969 29.824219 20.253906 C 31.394531 18.964844 33.027344 17.753906 34.71875 16.625 C 36.40625 15.492188 38.148438 14.449219 39.945312 13.492188 C 41.738281 12.53125 43.574219 11.664062 45.453125 10.886719 C 47.332031 10.105469 49.242188 9.421875 51.1875 8.832031 C 53.136719 8.242188 55.105469 7.75 57.101562 7.351562 C 59.09375 6.957031 61.105469 6.65625 63.128906 6.457031 C 65.152344 6.257812 67.179688 6.160156 69.214844 6.160156 C 71.246094 6.160156 73.277344 6.257812 75.300781 6.457031 C 77.324219 6.65625 79.332031 6.957031 81.328125 7.351562 C 83.324219 7.75 85.292969 8.242188 87.238281 8.832031 C 89.183594 9.421875 91.097656 10.105469 92.976562 10.886719 C 94.855469 11.664062 96.691406 12.53125 98.484375 13.492188 C 100.277344 14.449219 102.019531 15.492188 103.710938 16.625 C 105.402344 17.753906 107.035156 18.964844 108.605469 20.253906 C 110.175781 21.542969 111.683594 22.90625 113.121094 24.34375 C 114.558594 25.785156 115.921875 27.289062 117.210938 28.859375 C 118.503906 30.433594 119.710938 32.0625 120.84375 33.753906 C 121.972656 35.445312 123.015625 37.1875 123.976562 38.980469 C 124.933594 40.773438 125.800781 42.609375 126.582031 44.488281 C 127.359375 46.367188 128.042969 48.28125 128.632812 50.226562 C 129.222656 52.171875 129.71875 54.144531 130.113281 56.136719 C 130.511719 58.132812 130.808594 60.140625 131.007812 62.164062 C 131.207031 64.191406 131.308594 66.21875 131.308594 68.253906 Z M 131.308594 68.253906 " fill-opacity="1" fill-rule="nonzero"/></g><g clip-path="url(#f27d592cdd)"><path fill="#ffffff" d="M 85.914062 28.84375 C 85.566406 28.496094 85.152344 28.308594 84.664062 28.28125 L 44.21875 28.28125 C 43.960938 28.28125 43.714844 28.328125 43.480469 28.425781 C 43.246094 28.523438 43.035156 28.664062 42.855469 28.84375 C 42.675781 29.023438 42.535156 29.234375 42.4375 29.46875 C 42.339844 29.703125 42.289062 29.949219 42.289062 30.207031 L 42.289062 35.210938 L 37.9375 35.210938 C 37.691406 35.210938 37.453125 35.253906 37.222656 35.347656 C 36.992188 35.4375 36.789062 35.570312 36.609375 35.738281 C 36.429688 35.910156 36.289062 36.105469 36.183594 36.328125 C 36.082031 36.554688 36.023438 36.789062 36.011719 37.035156 L 36.011719 106.277344 C 36.011719 106.535156 36.058594 106.78125 36.15625 107.015625 C 36.253906 107.253906 36.394531 107.460938 36.574219 107.640625 C 36.757812 107.820312 36.964844 107.960938 37.199219 108.058594 C 37.4375 108.15625 37.683594 108.207031 37.9375 108.207031 L 94.082031 108.207031 C 94.335938 108.207031 94.582031 108.15625 94.820312 108.058594 C 95.054688 107.960938 95.265625 107.820312 95.445312 107.640625 C 95.625 107.460938 95.765625 107.253906 95.863281 107.015625 C 95.960938 106.78125 96.007812 106.535156 96.007812 106.277344 L 96.007812 101.273438 L 100.363281 101.273438 C 100.617188 101.277344 100.863281 101.230469 101.097656 101.132812 C 101.335938 101.035156 101.542969 100.898438 101.722656 100.71875 C 101.90625 100.539062 102.042969 100.332031 102.140625 100.097656 C 102.238281 99.859375 102.289062 99.617188 102.289062 99.359375 L 102.289062 45.96875 C 102.289062 45.4375 102.101562 44.988281 101.726562 44.617188 Z M 79.65625 35.710938 C 79.492188 35.550781 79.304688 35.425781 79.09375 35.335938 C 79.035156 35.304688 78.972656 35.28125 78.90625 35.261719 C 78.742188 35.210938 78.578125 35.183594 78.40625 35.171875 L 46.144531 35.171875 L 46.144531 32.132812 L 83.800781 32.132812 L 98.421875 46.769531 L 98.421875 97.496094 L 96.007812 97.496094 L 96.007812 52.835938 C 96.011719 52.792969 96.011719 52.753906 96.007812 52.710938 C 96 52.542969 95.964844 52.382812 95.910156 52.222656 C 95.914062 52.160156 95.914062 52.097656 95.910156 52.035156 C 95.816406 51.824219 95.691406 51.636719 95.535156 51.472656 Z M 78.320312 54.761719 L 92.167969 54.761719 L 92.167969 104.351562 L 39.863281 104.351562 L 39.863281 38.988281 L 76.394531 38.988281 L 76.394531 52.835938 C 76.394531 53.09375 76.441406 53.335938 76.539062 53.574219 C 76.636719 53.808594 76.777344 54.019531 76.957031 54.199219 C 77.136719 54.378906 77.347656 54.519531 77.582031 54.617188 C 77.816406 54.714844 78.0625 54.761719 78.320312 54.761719 Z M 80.246094 41.714844 L 89.441406 50.910156 L 80.246094 50.910156 Z M 80.246094 41.714844 " fill-opacity="1" fill-rule="nonzero"/></g><path fill="#ffffff" d="M 29.730469 79.570312 C 29.382812 79.289062 28.988281 79.152344 28.542969 79.15625 C 27.914062 79.152344 27.410156 79.398438 27.027344 79.894531 L 22.699219 85.4375 C 22.542969 85.636719 22.429688 85.859375 22.359375 86.105469 C 22.289062 86.347656 22.269531 86.597656 22.300781 86.851562 C 22.332031 87.101562 22.410156 87.339844 22.535156 87.5625 C 22.660156 87.78125 22.824219 87.972656 23.027344 88.128906 C 23.371094 88.40625 23.769531 88.542969 24.214844 88.539062 C 24.839844 88.539062 25.34375 88.296875 25.726562 87.800781 L 30.054688 82.273438 C 30.214844 82.070312 30.328125 81.847656 30.398438 81.601562 C 30.46875 81.355469 30.488281 81.105469 30.457031 80.851562 C 30.425781 80.597656 30.347656 80.363281 30.222656 80.140625 C 30.097656 79.917969 29.933594 79.726562 29.730469 79.570312 Z M 29.730469 79.570312 " fill-opacity="1" fill-rule="nonzero"/><path fill="#ffffff" d="M 108.832031 63.769531 C 109.199219 64.058594 109.617188 64.195312 110.082031 64.183594 C 110.710938 64.1875 111.214844 63.941406 111.597656 63.445312 L 115.925781 57.914062 C 116.152344 57.625 116.289062 57.300781 116.328125 56.933594 C 116.367188 56.566406 116.304688 56.21875 116.144531 55.886719 C 115.984375 55.558594 115.746094 55.292969 115.433594 55.101562 C 115.121094 54.90625 114.777344 54.808594 114.410156 54.8125 C 113.789062 54.8125 113.285156 55.054688 112.898438 55.539062 L 108.570312 61.066406 C 108.40625 61.265625 108.289062 61.484375 108.214844 61.726562 C 108.144531 61.972656 108.117188 62.21875 108.144531 62.472656 C 108.167969 62.726562 108.238281 62.964844 108.359375 63.191406 C 108.476562 63.414062 108.636719 63.609375 108.832031 63.769531 Z M 108.832031 63.769531 " fill-opacity="1" fill-rule="nonzero"/><path fill="#ffffff" d="M 61.003906 59.804688 L 71.625 59.804688 C 71.882812 59.804688 72.128906 59.753906 72.363281 59.65625 C 72.597656 59.558594 72.808594 59.421875 72.988281 59.238281 C 73.167969 59.058594 73.308594 58.851562 73.40625 58.613281 C 73.503906 58.378906 73.550781 58.132812 73.550781 57.878906 C 73.550781 57.621094 73.503906 57.378906 73.40625 57.140625 C 73.308594 56.90625 73.167969 56.695312 72.988281 56.515625 C 72.808594 56.335938 72.597656 56.195312 72.363281 56.097656 C 72.128906 56 71.882812 55.953125 71.625 55.953125 L 61.003906 55.953125 C 60.75 55.953125 60.503906 56 60.269531 56.097656 C 60.035156 56.195312 59.824219 56.335938 59.644531 56.515625 C 59.464844 56.695312 59.324219 56.90625 59.226562 57.140625 C 59.128906 57.378906 59.082031 57.621094 59.082031 57.878906 C 59.082031 58.132812 59.128906 58.378906 59.226562 58.613281 C 59.324219 58.851562 59.464844 59.058594 59.644531 59.238281 C 59.824219 59.421875 60.035156 59.558594 60.269531 59.65625 C 60.503906 59.753906 60.75 59.804688 61.003906 59.804688 Z M 61.003906 59.804688 " fill-opacity="1" fill-rule="nonzero"/><g clip-path="url(#0000fbfab5)"><path fill="#ffffff" d="M 27.117188 71.675781 C 27.117188 71.421875 27.066406 71.175781 26.96875 70.9375 C 26.871094 70.703125 26.734375 70.496094 26.550781 70.3125 C 26.371094 70.132812 26.164062 69.996094 25.925781 69.898438 C 25.691406 69.796875 25.445312 69.75 25.191406 69.75 L 17.785156 69.75 C 17.527344 69.75 17.28125 69.796875 17.046875 69.894531 C 16.808594 69.992188 16.601562 70.132812 16.421875 70.3125 C 16.238281 70.492188 16.101562 70.703125 16 70.9375 C 15.902344 71.175781 15.855469 71.421875 15.855469 71.675781 C 15.855469 71.933594 15.902344 72.179688 16 72.414062 C 16.101562 72.652344 16.238281 72.859375 16.421875 73.039062 C 16.601562 73.21875 16.808594 73.359375 17.046875 73.457031 C 17.28125 73.554688 17.527344 73.601562 17.785156 73.601562 L 25.203125 73.601562 C 25.457031 73.601562 25.703125 73.550781 25.9375 73.453125 C 26.171875 73.355469 26.378906 73.214844 26.554688 73.035156 C 26.734375 72.855469 26.875 72.644531 26.972656 72.410156 C 27.066406 72.175781 27.117188 71.929688 27.117188 71.675781 Z M 27.117188 71.675781 " fill-opacity="1" fill-rule="nonzero"/></g><path fill="#ffffff" d="M 61.003906 53.300781 L 71.625 53.300781 C 71.882812 53.300781 72.128906 53.25 72.363281 53.152344 C 72.601562 53.054688 72.808594 52.914062 72.988281 52.734375 C 73.167969 52.554688 73.308594 52.347656 73.40625 52.109375 C 73.503906 51.875 73.554688 51.628906 73.554688 51.371094 C 73.554688 51.117188 73.503906 50.871094 73.40625 50.636719 C 73.308594 50.398438 73.167969 50.191406 72.988281 50.011719 C 72.808594 49.828125 72.601562 49.691406 72.363281 49.59375 C 72.128906 49.496094 71.882812 49.445312 71.625 49.445312 L 61.003906 49.445312 C 60.75 49.445312 60.503906 49.496094 60.269531 49.59375 C 60.03125 49.691406 59.824219 49.828125 59.644531 50.011719 C 59.464844 50.191406 59.324219 50.398438 59.226562 50.636719 C 59.128906 50.871094 59.078125 51.117188 59.078125 51.371094 C 59.078125 51.628906 59.128906 51.875 59.226562 52.109375 C 59.324219 52.347656 59.464844 52.554688 59.644531 52.734375 C 59.824219 52.914062 60.03125 53.054688 60.269531 53.152344 C 60.503906 53.25 60.75 53.300781 61.003906 53.300781 Z M 61.003906 53.300781 " fill-opacity="1" fill-rule="nonzero"/><path fill="#ffffff" d="M 59.09375 69.789062 C 59.09375 70.042969 59.140625 70.285156 59.238281 70.523438 C 59.335938 70.757812 59.472656 70.964844 59.652344 71.144531 C 59.832031 71.324219 60.039062 71.464844 60.273438 71.5625 C 60.507812 71.664062 60.75 71.710938 61.003906 71.714844 L 83.523438 71.714844 C 83.777344 71.714844 84.023438 71.664062 84.261719 71.566406 C 84.496094 71.46875 84.707031 71.332031 84.886719 71.148438 C 85.066406 70.96875 85.207031 70.761719 85.304688 70.523438 C 85.402344 70.289062 85.449219 70.042969 85.449219 69.789062 C 85.449219 69.53125 85.402344 69.285156 85.304688 69.050781 C 85.207031 68.8125 85.066406 68.605469 84.886719 68.425781 C 84.707031 68.246094 84.496094 68.105469 84.261719 68.007812 C 84.023438 67.910156 83.777344 67.859375 83.523438 67.859375 L 61.003906 67.859375 C 60.75 67.863281 60.507812 67.914062 60.273438 68.011719 C 60.039062 68.109375 59.832031 68.25 59.652344 68.429688 C 59.472656 68.609375 59.335938 68.816406 59.238281 69.054688 C 59.140625 69.289062 59.09375 69.53125 59.09375 69.789062 Z M 59.09375 69.789062 " fill-opacity="1" fill-rule="nonzero"/><path fill="#ffffff" d="M 83.574219 74.429688 L 61.054688 74.429688 C 60.800781 74.429688 60.554688 74.476562 60.320312 74.574219 C 60.082031 74.671875 59.875 74.8125 59.695312 74.992188 C 59.511719 75.171875 59.375 75.382812 59.277344 75.617188 C 59.179688 75.855469 59.128906 76.101562 59.128906 76.355469 C 59.128906 76.609375 59.179688 76.855469 59.277344 77.09375 C 59.375 77.328125 59.511719 77.535156 59.695312 77.71875 C 59.875 77.898438 60.082031 78.039062 60.320312 78.136719 C 60.554688 78.234375 60.800781 78.28125 61.054688 78.28125 L 83.574219 78.28125 C 83.828125 78.28125 84.074219 78.234375 84.3125 78.136719 C 84.546875 78.039062 84.753906 77.898438 84.9375 77.71875 C 85.117188 77.535156 85.257812 77.328125 85.355469 77.09375 C 85.453125 76.855469 85.5 76.609375 85.5 76.355469 C 85.5 76.101562 85.453125 75.855469 85.355469 75.617188 C 85.257812 75.382812 85.117188 75.171875 84.9375 74.992188 C 84.753906 74.8125 84.546875 74.671875 84.3125 74.574219 C 84.074219 74.476562 83.828125 74.429688 83.574219 74.429688 Z M 83.574219 74.429688 " fill-opacity="1" fill-rule="nonzero"/><path fill="#ffffff" d="M 25.726562 55.550781 C 25.347656 55.054688 24.839844 54.808594 24.214844 54.8125 C 23.847656 54.808594 23.503906 54.90625 23.191406 55.101562 C 22.878906 55.292969 22.640625 55.558594 22.480469 55.886719 C 22.320312 56.21875 22.257812 56.566406 22.296875 56.933594 C 22.335938 57.300781 22.472656 57.625 22.699219 57.914062 L 27.027344 63.445312 C 27.410156 63.941406 27.914062 64.1875 28.542969 64.183594 C 28.910156 64.183594 29.25 64.085938 29.5625 63.890625 C 29.875 63.691406 30.113281 63.429688 30.273438 63.097656 C 30.433594 62.765625 30.496094 62.417969 30.457031 62.050781 C 30.417969 61.6875 30.285156 61.359375 30.054688 61.066406 Z M 25.726562 55.550781 " fill-opacity="1" fill-rule="nonzero"/><path fill="#ffffff" d="M 111.535156 79.90625 C 111.152344 79.410156 110.648438 79.164062 110.019531 79.167969 C 109.550781 79.148438 109.132812 79.289062 108.769531 79.582031 C 108.570312 79.738281 108.40625 79.929688 108.28125 80.148438 C 108.15625 80.371094 108.078125 80.609375 108.046875 80.859375 C 108.019531 81.113281 108.035156 81.359375 108.105469 81.605469 C 108.171875 81.851562 108.285156 82.074219 108.445312 82.273438 L 112.773438 87.800781 C 113.15625 88.296875 113.660156 88.539062 114.285156 88.539062 C 114.753906 88.5625 115.171875 88.425781 115.535156 88.128906 C 115.738281 87.96875 115.902344 87.78125 116.027344 87.558594 C 116.15625 87.335938 116.234375 87.097656 116.261719 86.84375 C 116.292969 86.589844 116.273438 86.339844 116.203125 86.09375 C 116.136719 85.847656 116.019531 85.625 115.863281 85.425781 Z M 111.535156 79.90625 " fill-opacity="1" fill-rule="nonzero"/><path fill="#ffffff" d="M 83.574219 86.339844 L 61.054688 86.339844 C 60.800781 86.339844 60.554688 86.386719 60.320312 86.484375 C 60.085938 86.582031 59.875 86.722656 59.695312 86.902344 C 59.515625 87.085938 59.375 87.292969 59.28125 87.527344 C 59.183594 87.765625 59.132812 88.007812 59.132812 88.265625 C 59.132812 88.519531 59.183594 88.765625 59.28125 89 C 59.375 89.238281 59.515625 89.445312 59.695312 89.625 C 59.875 89.804688 60.085938 89.945312 60.320312 90.042969 C 60.554688 90.140625 60.800781 90.191406 61.054688 90.191406 L 83.574219 90.191406 C 83.828125 90.191406 84.074219 90.140625 84.3125 90.042969 C 84.546875 89.945312 84.753906 89.808594 84.9375 89.625 C 85.117188 89.445312 85.257812 89.238281 85.355469 89 C 85.453125 88.765625 85.5 88.519531 85.5 88.265625 C 85.5 88.007812 85.453125 87.761719 85.355469 87.527344 C 85.257812 87.292969 85.117188 87.082031 84.9375 86.902344 C 84.753906 86.722656 84.546875 86.582031 84.3125 86.484375 C 84.074219 86.386719 83.828125 86.339844 83.574219 86.339844 Z M 83.574219 86.339844 " fill-opacity="1" fill-rule="nonzero"/><g clip-path="url(#63a4834637)"><path fill="#ffffff" d="M 120.777344 69.75 L 113.359375 69.75 C 113.105469 69.75 112.859375 69.796875 112.621094 69.898438 C 112.386719 69.996094 112.179688 70.132812 111.996094 70.3125 C 111.816406 70.496094 111.679688 70.703125 111.578125 70.9375 C 111.480469 71.175781 111.433594 71.421875 111.433594 71.675781 C 111.433594 71.933594 111.480469 72.175781 111.578125 72.414062 C 111.679688 72.648438 111.816406 72.859375 111.996094 73.039062 C 112.179688 73.21875 112.386719 73.359375 112.621094 73.457031 C 112.859375 73.554688 113.105469 73.601562 113.359375 73.601562 L 120.777344 73.601562 C 121.035156 73.601562 121.28125 73.554688 121.515625 73.457031 C 121.75 73.359375 121.960938 73.21875 122.140625 73.039062 C 122.320312 72.859375 122.460938 72.648438 122.558594 72.414062 C 122.65625 72.175781 122.703125 71.933594 122.703125 71.675781 C 122.703125 71.421875 122.65625 71.175781 122.558594 70.9375 C 122.460938 70.703125 122.320312 70.496094 122.140625 70.3125 C 121.960938 70.132812 121.75 69.996094 121.515625 69.898438 C 121.28125 69.796875 121.035156 69.75 120.777344 69.75 Z M 120.777344 69.75 " fill-opacity="1" fill-rule="nonzero"/></g><path fill="#ffffff" d="M 54.226562 65.734375 C 53.945312 65.597656 53.648438 65.523438 53.335938 65.523438 C 52.980469 65.523438 52.648438 65.613281 52.339844 65.800781 C 52.035156 65.988281 51.800781 66.242188 51.636719 66.558594 L 48.21875 73.113281 L 46.582031 71.101562 C 46.191406 70.632812 45.691406 70.398438 45.082031 70.402344 C 44.609375 70.390625 44.191406 70.535156 43.828125 70.839844 C 43.632812 71 43.472656 71.191406 43.355469 71.417969 C 43.234375 71.640625 43.160156 71.878906 43.136719 72.132812 C 43.109375 72.386719 43.132812 72.632812 43.207031 72.878906 C 43.277344 73.121094 43.394531 73.34375 43.554688 73.539062 L 47.132812 77.804688 C 47.519531 78.277344 48.015625 78.511719 48.621094 78.519531 L 48.820312 78.519531 C 49.144531 78.484375 49.4375 78.378906 49.707031 78.195312 C 49.976562 78.015625 50.183594 77.78125 50.335938 77.492188 L 55.050781 68.3125 C 55.164062 68.085938 55.230469 67.847656 55.25 67.59375 C 55.269531 67.34375 55.238281 67.09375 55.164062 66.855469 C 55.085938 66.613281 54.964844 66.398438 54.804688 66.203125 C 54.640625 66.007812 54.449219 65.851562 54.226562 65.734375 Z M 54.226562 65.734375 " fill-opacity="1" fill-rule="nonzero"/><path fill="#ffffff" d="M 54.226562 85.601562 C 53.949219 85.453125 53.652344 85.375 53.335938 85.375 C 52.980469 85.378906 52.648438 85.472656 52.34375 85.660156 C 52.039062 85.84375 51.800781 86.097656 51.636719 86.414062 L 48.21875 92.96875 L 46.582031 90.964844 C 46.414062 90.769531 46.21875 90.609375 45.988281 90.488281 C 45.761719 90.371094 45.515625 90.300781 45.257812 90.277344 C 45.003906 90.253906 44.75 90.28125 44.503906 90.359375 C 44.257812 90.433594 44.035156 90.558594 43.835938 90.722656 C 43.636719 90.890625 43.480469 91.085938 43.359375 91.316406 C 43.238281 91.542969 43.167969 91.789062 43.144531 92.046875 C 43.121094 92.304688 43.148438 92.554688 43.226562 92.800781 C 43.304688 93.046875 43.425781 93.269531 43.59375 93.46875 L 47.132812 97.671875 C 47.519531 98.136719 48.015625 98.371094 48.621094 98.371094 L 48.820312 98.371094 C 49.144531 98.339844 49.441406 98.234375 49.707031 98.050781 C 49.976562 97.871094 50.1875 97.636719 50.335938 97.347656 L 55.101562 88.203125 C 55.21875 87.972656 55.285156 87.726562 55.304688 87.46875 C 55.324219 87.214844 55.289062 86.960938 55.207031 86.71875 C 55.125 86.472656 55 86.253906 54.828125 86.058594 C 54.660156 85.867188 54.457031 85.714844 54.226562 85.601562 Z M 54.226562 85.601562 " fill-opacity="1" fill-rule="nonzero"/><path fill="#ffffff" d="M 83.574219 92.90625 L 61.054688 92.90625 C 60.800781 92.90625 60.554688 92.957031 60.320312 93.054688 C 60.085938 93.152344 59.875 93.289062 59.695312 93.472656 C 59.515625 93.652344 59.375 93.859375 59.28125 94.097656 C 59.183594 94.332031 59.132812 94.578125 59.132812 94.832031 C 59.132812 95.085938 59.183594 95.332031 59.28125 95.570312 C 59.375 95.804688 59.515625 96.011719 59.695312 96.191406 C 59.875 96.375 60.085938 96.511719 60.320312 96.609375 C 60.554688 96.710938 60.800781 96.757812 61.054688 96.757812 L 83.574219 96.757812 C 83.828125 96.757812 84.074219 96.710938 84.3125 96.613281 C 84.546875 96.515625 84.753906 96.375 84.9375 96.195312 C 85.117188 96.015625 85.257812 95.804688 85.355469 95.570312 C 85.453125 95.332031 85.5 95.085938 85.5 94.832031 C 85.5 94.578125 85.453125 94.332031 85.355469 94.09375 C 85.257812 93.859375 85.117188 93.652344 84.9375 93.46875 C 84.753906 93.289062 84.546875 93.148438 84.3125 93.050781 C 84.074219 92.953125 83.828125 92.90625 83.574219 92.90625 Z M 83.574219 92.90625 " fill-opacity="1" fill-rule="nonzero"/><path fill="#ffffff" d="M 54.226562 45.882812 C 53.960938 45.746094 53.683594 45.671875 53.386719 45.667969 C 53.214844 45.644531 53.046875 45.644531 52.875 45.667969 C 52.535156 45.761719 52.242188 45.9375 52 46.195312 C 51.867188 46.320312 51.765625 46.46875 51.6875 46.632812 L 48.21875 53.300781 L 46.582031 51.296875 C 46.421875 51.097656 46.226562 50.941406 46 50.820312 C 45.777344 50.699219 45.535156 50.625 45.28125 50.597656 C 45.027344 50.570312 44.777344 50.597656 44.53125 50.667969 C 44.289062 50.742188 44.066406 50.859375 43.867188 51.023438 C 43.667969 51.183594 43.507812 51.378906 43.386719 51.601562 C 43.265625 51.828125 43.191406 52.066406 43.167969 52.324219 C 43.140625 52.578125 43.164062 52.828125 43.238281 53.074219 C 43.3125 53.316406 43.429688 53.539062 43.59375 53.738281 L 47.132812 57.953125 C 47.519531 58.417969 48.015625 58.652344 48.621094 58.652344 L 48.820312 58.652344 C 49.144531 58.621094 49.441406 58.515625 49.707031 58.332031 C 49.976562 58.152344 50.1875 57.914062 50.335938 57.628906 L 55.101562 48.484375 C 55.21875 48.253906 55.285156 48.007812 55.304688 47.75 C 55.324219 47.496094 55.289062 47.242188 55.207031 47 C 55.125 46.753906 55 46.535156 54.828125 46.339844 C 54.660156 46.148438 54.457031 45.992188 54.226562 45.882812 Z M 54.226562 45.882812 " fill-opacity="1" fill-rule="nonzero"/></svg>