<svg version="1.1" id="Layer_1" xmlns="http://www.w3.org/2000/svg" xmlns:xlink="http://www.w3.org/1999/xlink" x="0px" y="0px"
	 width="100%" viewBox="0 0 2197 724" enable-background="new 0 0 2197 724" xml:space="preserve">
<path fill="#FFFFFF" opacity="1.000000" stroke="none" 
	d="
M1378.000000,725.000000 
	C918.666687,725.000000 459.833344,725.000000 1.000000,725.000000 
	C1.000000,483.666656 1.000000,242.333328 1.000000,1.000000 
	C733.333313,1.000000 1465.666626,1.000000 2198.000000,1.000000 
	C2198.000000,242.333328 2198.000000,483.666656 2198.000000,725.000000 
	C1924.833374,725.000000 1651.666626,725.000000 1378.000000,725.000000 
M569.819031,60.682358 
	C555.382935,53.103825 541.316223,44.692505 526.444275,38.096783 
	C473.566833,14.645630 418.109283,5.135161 360.342072,8.806361 
	C326.353851,10.966366 293.254669,17.492830 261.454926,29.534334 
	C169.942184,64.187141 102.607353,125.588638 60.981964,214.231262 
	C27.596767,285.326111 19.700853,359.896545 35.640186,436.622620 
	C50.522537,508.260834 84.736923,569.655640 137.802399,620.159607 
	C203.709534,682.885376 282.468964,715.691772 373.289001,718.776672 
	C433.182800,720.811035 490.179016,708.181580 543.599182,680.839600 
	C619.200989,642.144470 674.477051,583.849548 709.018799,506.284241 
	C732.553955,453.434784 741.874634,397.903351 738.181458,340.141022 
	C735.976013,305.646332 729.088928,272.143921 716.886108,239.852753 
	C688.168274,163.859558 639.103882,104.398033 569.819031,60.682358 
M1087.930786,388.500031 
	C1087.930786,413.924622 1087.930786,439.349213 1087.930786,464.704224 
	C1104.750732,464.704224 1120.984985,464.704224 1137.308838,464.704224 
	C1137.308838,385.981628 1137.308838,307.557434 1137.308838,228.891373 
	C1120.815186,228.891373 1104.552612,228.891373 1087.870850,228.891373 
	C1087.870850,261.797791 1087.870850,294.555176 1087.870850,327.505249 
	C1053.389893,327.505249 1019.327759,327.505249 984.861023,327.505249 
	C984.861023,294.484833 984.861023,261.736786 984.861023,228.955124 
	C968.048462,228.955124 951.642761,228.955124 935.241089,228.955124 
	C935.241089,307.702759 935.241089,386.144409 935.241089,464.740295 
	C951.837708,464.740295 968.229797,464.740295 985.043213,464.740295 
	C985.043213,431.748138 985.043213,399.015381 985.043213,366.292725 
	C1019.533569,366.292725 1053.600708,366.292725 1087.930786,366.292725 
	C1087.930786,373.553314 1087.930786,380.526703 1087.930786,388.500031 
M1561.216553,308.499878 
	C1561.216553,360.588715 1561.216553,412.677551 1561.216553,464.787476 
	C1578.109253,464.787476 1594.374390,464.787476 1611.002197,464.787476 
	C1611.002197,462.962372 1611.002075,461.331421 1611.002075,459.700500 
	C1611.001953,443.703552 1610.967529,427.706451 1611.052490,411.709961 
	C1611.061523,410.008179 1611.208008,407.758728 1612.246216,406.701263 
	C1618.278931,400.555511 1624.597778,394.690430 1631.082031,388.479431 
	C1632.298828,390.210449 1633.243408,391.532959 1634.166260,392.870544 
	C1649.940674,415.733215 1665.761597,438.564270 1681.418579,461.507141 
	C1683.234009,464.167358 1685.088379,465.126373 1688.294678,465.085205 
	C1702.956055,464.896667 1717.621338,465.009155 1732.285156,464.989868 
	C1733.495117,464.988281 1734.704712,464.810211 1736.451294,464.671539 
	C1711.568237,430.230103 1687.072632,396.324951 1662.432251,362.219482 
	C1685.767456,338.541656 1708.885132,315.084686 1732.623779,290.997650 
	C1714.067139,290.997650 1696.736084,290.897339 1679.409546,291.125153 
	C1677.254639,291.153473 1674.656738,292.432312 1673.051147,293.959320 
	C1653.611450,312.445770 1634.321411,331.089478 1614.985229,349.684601 
	C1613.865112,350.761871 1612.681152,351.772705 1610.833252,353.440430 
	C1610.833252,307.626984 1610.833252,262.763916 1610.833252,217.875732 
	C1594.122314,217.875732 1577.845459,217.875732 1561.216553,217.875732 
	C1561.216553,247.912033 1561.216553,277.705933 1561.216553,308.499878 
M2149.887695,451.614349 
	C2128.377441,421.881805 2106.867188,392.149261 2085.215576,362.221283 
	C2108.602295,338.495514 2131.739014,315.023254 2155.420410,290.998596 
	C2137.018066,290.998596 2119.687500,290.918396 2102.359863,291.105682 
	C2100.318604,291.127747 2097.805664,292.106903 2096.333984,293.506989 
	C2076.657227,312.226593 2057.128174,331.101746 2037.555786,349.931122 
	C2036.567993,350.881470 2035.517700,351.766815 2033.858398,353.254547 
	C2033.858398,307.550079 2033.858398,262.786346 2033.858398,217.904785 
	C2017.135620,217.904785 2000.754761,217.904785 1984.362061,217.904785 
	C1984.362061,300.386200 1984.362061,382.599152 1984.362061,464.626160 
	C2001.072876,464.626160 2017.464722,464.626160 2033.881226,464.626160 
	C2033.881226,446.758667 2033.851929,429.266296 2033.927368,411.774353 
	C2033.934814,410.062866 2034.007935,407.787140 2035.035522,406.737579 
	C2041.054199,400.590454 2047.366089,394.730347 2053.817139,388.545135 
	C2055.036377,390.197571 2056.042725,391.486053 2056.970215,392.828949 
	C2072.849365,415.822449 2088.757080,438.796356 2104.530518,461.862274 
	C2106.125977,464.195648 2107.744385,465.108215 2110.565186,465.068085 
	C2121.894043,464.906860 2133.226562,465.001373 2144.557861,465.001373 
	C2149.281982,465.001373 2154.005859,465.001404 2158.958984,465.001404 
	C2158.613281,464.133240 2158.552734,463.817322 2158.383057,463.579468 
	C2155.679688,459.790955 2152.962402,456.012451 2149.887695,451.614349 
M1900.191772,294.250854 
	C1872.310791,285.314850 1844.133911,284.898407 1816.046631,292.570679 
	C1790.266846,299.612701 1773.711304,316.744659 1765.953247,342.201813 
	C1759.558228,363.186218 1759.297607,384.525848 1763.862671,405.870697 
	C1770.304932,435.992523 1787.762939,456.182556 1818.059937,464.109375 
	C1841.693115,470.292694 1865.558105,470.191467 1889.309814,465.003418 
	C1917.109497,458.931152 1936.076294,442.327301 1944.538208,415.063812 
	C1951.959717,391.152618 1952.067261,366.782196 1944.968384,342.703430 
	C1938.163940,319.623505 1923.857910,303.053864 1900.191772,294.250854 
M1199.741699,367.184387 
	C1174.072876,381.163147 1167.344238,407.373291 1174.310791,431.293030 
	C1180.568237,452.777649 1197.380859,463.475586 1218.372070,466.920349 
	C1246.361206,471.513489 1273.105225,468.029449 1296.907471,449.766296 
	C1297.836670,454.957153 1298.697876,459.768127 1299.583618,464.716858 
	C1313.989746,464.716858 1328.211792,464.716858 1342.491089,464.716858 
	C1342.614380,463.973328 1342.760986,463.502625 1342.760620,463.032043 
	C1342.729126,426.870575 1342.765991,390.708710 1342.595581,354.547821 
	C1342.544434,343.679260 1341.235107,332.932251 1336.630371,322.881073 
	C1328.178467,304.432892 1312.338135,295.809509 1293.764282,291.049316 
	C1276.097046,286.521423 1258.075195,286.759094 1240.110962,288.216980 
	C1224.036621,289.521454 1208.219604,292.497040 1193.178223,298.307983 
	C1193.178223,310.006897 1193.178223,321.425446 1193.178223,333.060120 
	C1194.104980,332.867737 1194.756470,332.793549 1195.368530,332.596619 
	C1218.994385,324.994965 1243.151978,322.505646 1267.837158,325.002808 
	C1288.627563,327.105957 1298.459595,339.182373 1294.431763,358.096710 
	C1278.189331,358.096710 1261.878418,357.982849 1245.569702,358.129486 
	C1230.005615,358.269440 1214.640503,359.691864 1199.741699,367.184387 
M1378.550781,406.913391 
	C1384.396851,431.279083 1398.357300,449.044250 1421.356689,459.404755 
	C1436.204224,466.093079 1451.993286,468.186493 1468.069336,468.552399 
	C1488.197021,469.010498 1507.960205,466.828125 1526.867310,459.417725 
	C1528.316650,458.849640 1530.443115,457.337463 1530.469238,456.222382 
	C1530.735596,444.812531 1530.632324,433.394043 1530.632324,421.681396 
	C1529.598877,421.892975 1528.921753,421.907959 1528.354980,422.165466 
	C1507.520020,431.630829 1485.725464,433.411346 1463.388550,429.944885 
	C1443.275513,426.823547 1429.914062,414.539948 1427.381958,395.247589 
	C1425.947388,384.318359 1426.055176,372.963196 1427.173096,361.973267 
	C1428.991821,344.095551 1439.386963,332.748901 1456.830444,327.814880 
	C1470.895630,323.836395 1485.190918,323.531525 1499.413086,325.633057 
	C1509.777100,327.164490 1519.907471,330.276154 1530.063965,332.664948 
	C1530.063965,321.710938 1530.063965,310.064392 1530.063965,298.418701 
	C1529.222290,297.984680 1528.519409,297.536438 1527.757202,297.241608 
	C1493.595337,284.024017 1459.025146,283.196869 1424.870483,296.176392 
	C1399.148804,305.951172 1383.253174,325.120148 1377.867676,352.549225 
	C1374.349854,370.465668 1374.595947,388.291534 1378.550781,406.913391 
z"/>
<path fill="#5142D9" opacity="1.000000" stroke="none" 
	d="
M570.130981,60.867714 
	C639.103882,104.398033 688.168274,163.859558 716.886108,239.852753 
	C729.088928,272.143921 735.976013,305.646332 738.181458,340.141022 
	C741.874634,397.903351 732.553955,453.434784 709.018799,506.284241 
	C674.477051,583.849548 619.200989,642.144470 543.599182,680.839600 
	C490.179016,708.181580 433.182800,720.811035 373.289001,718.776672 
	C282.468964,715.691772 203.709534,682.885376 137.802399,620.159607 
	C84.736923,569.655640 50.522537,508.260834 35.640186,436.622620 
	C19.700853,359.896545 27.596767,285.326111 60.981964,214.231262 
	C102.607353,125.588638 169.942184,64.187141 261.454926,29.534334 
	C293.254669,17.492830 326.353851,10.966366 360.342072,8.806361 
	C418.109283,5.135161 473.566833,14.645630 526.444275,38.096783 
	C541.316223,44.692505 555.382935,53.103825 570.130981,60.867714 
M589.359070,262.947784 
	C601.403931,231.722351 613.443848,200.495010 625.498047,169.273193 
	C627.785645,163.348175 626.565979,161.597076 619.931763,161.592957 
	C592.767944,161.576111 565.604004,161.608643 538.440308,161.564392 
	C533.567810,161.556458 530.422607,163.583557 528.659790,168.230988 
	C522.224304,185.197296 515.638916,202.106720 509.119995,219.041428 
	C476.222076,304.502777 443.324768,389.964355 410.437378,475.429779 
	C408.381653,480.772156 410.467834,483.877960 416.087921,483.880402 
	C442.585175,483.891876 469.082397,483.884979 495.579651,483.884399 
	C502.656708,483.884247 504.904083,482.375824 507.439545,475.790771 
	C534.662170,405.088531 561.876831,334.383240 589.359070,262.947784 
M360.504028,431.280396 
	C360.496918,418.361176 360.246765,418.109741 347.426331,418.109833 
	C301.950836,418.110168 256.475342,418.110077 210.999832,418.110199 
	C197.528000,418.110260 197.368103,418.271912 197.464813,431.784576 
	C197.520981,439.631958 198.998047,441.139740 206.816544,441.141266 
	C254.957275,441.150726 303.098022,441.151245 351.238739,441.140442 
	C358.834717,441.138733 360.161346,439.818817 360.504028,431.280396 
M198.308044,299.981293 
	C198.029251,303.276123 197.548080,306.568695 197.510941,309.866272 
	C197.413605,318.509735 198.930634,319.936859 207.703995,319.937469 
	C253.674698,319.940643 299.646088,319.795135 345.615692,320.018188 
	C361.369598,320.094604 360.710724,318.617462 360.436981,303.964325 
	C360.339813,298.765411 358.232513,296.924866 352.867310,296.921783 
	C303.565399,296.893280 254.263397,296.875793 204.961823,297.005402 
	C202.889023,297.010864 200.820129,298.493713 198.308044,299.981293 
M235.500122,539.447510 
	C227.174332,539.447449 218.848526,539.447449 210.522736,539.447388 
	C197.677628,539.447205 197.432907,539.694885 197.503922,552.624207 
	C197.547241,560.509705 198.999969,562.000610 206.780533,562.001709 
	C254.903717,562.008240 303.026886,562.007812 351.150085,562.000000 
	C358.910889,561.998718 360.384796,560.491211 360.461761,552.612000 
	C360.473145,551.446533 360.468048,550.280762 360.461731,549.115173 
	C360.416962,540.884521 359.028290,539.456726 350.896790,539.454468 
	C312.764587,539.444031 274.632355,539.448730 235.500122,539.447510 
M426.500275,500.092316 
	C419.052094,500.092316 411.603943,500.092316 403.476227,500.092316 
	C395.558441,518.387390 387.337982,537.381836 378.823944,557.054565 
	C381.195404,557.661316 383.031616,558.508179 384.880798,558.537537 
	C392.026794,558.650879 399.177155,558.451782 406.325562,558.472534 
	C410.610443,558.485046 414.128418,557.160156 417.024841,553.825378 
	C421.601044,548.556702 426.424957,543.503662 431.124237,538.341309 
	C441.164612,527.311646 451.192352,516.270447 461.100922,505.370697 
	C460.144043,503.304871 459.406189,501.711884 458.656036,500.092377 
	C448.115234,500.092377 437.807709,500.092377 426.500275,500.092316 
M166.077484,418.225433 
	C164.751389,418.260010 163.384781,418.098694 162.106155,418.362915 
	C156.349518,419.552582 152.478256,424.982330 153.043716,430.899261 
	C153.579025,436.500763 158.415878,440.938568 164.134384,441.074890 
	C170.109528,441.217346 175.073898,436.944397 175.841187,430.998535 
	C176.568710,425.360901 173.454758,420.974823 166.077484,418.225433 
M155.671478,315.695404 
	C160.697433,320.251862 165.175568,321.052704 170.110153,318.277435 
	C174.434418,315.845459 176.758606,310.757843 175.648239,305.963013 
	C174.573349,301.321381 171.638382,298.240875 167.066101,297.193787 
	C162.298279,296.101898 158.099869,297.566559 155.186508,301.621582 
	C152.012863,306.038940 152.232559,310.610199 155.671478,315.695404 
M175.905746,551.329224 
	C175.153000,543.584534 170.281998,538.953186 163.479736,539.514526 
	C157.136459,540.038025 152.538986,545.418396 153.029495,551.744507 
	C153.430115,556.911499 157.774063,561.354309 162.985397,561.927063 
	C169.245621,562.615112 173.798843,559.141052 175.905746,551.329224 
z"/>
<path fill="#010101" opacity="1.000000" stroke="none" 
	d="
M1087.930786,388.000061 
	C1087.930786,380.526703 1087.930786,373.553314 1087.930786,366.292725 
	C1053.600708,366.292725 1019.533569,366.292725 985.043213,366.292725 
	C985.043213,399.015381 985.043213,431.748138 985.043213,464.740295 
	C968.229797,464.740295 951.837708,464.740295 935.241089,464.740295 
	C935.241089,386.144409 935.241089,307.702759 935.241089,228.955124 
	C951.642761,228.955124 968.048462,228.955124 984.861023,228.955124 
	C984.861023,261.736786 984.861023,294.484833 984.861023,327.505249 
	C1019.327759,327.505249 1053.389893,327.505249 1087.870850,327.505249 
	C1087.870850,294.555176 1087.870850,261.797791 1087.870850,228.891373 
	C1104.552612,228.891373 1120.815186,228.891373 1137.308838,228.891373 
	C1137.308838,307.557434 1137.308838,385.981628 1137.308838,464.704224 
	C1120.984985,464.704224 1104.750732,464.704224 1087.930786,464.704224 
	C1087.930786,439.349213 1087.930786,413.924622 1087.930786,388.000061 
z"/>
<path fill="#010101" opacity="1.000000" stroke="none" 
	d="
M1561.216553,307.999847 
	C1561.216553,277.705933 1561.216553,247.912033 1561.216553,217.875732 
	C1577.845459,217.875732 1594.122314,217.875732 1610.833252,217.875732 
	C1610.833252,262.763916 1610.833252,307.626984 1610.833252,353.440430 
	C1612.681152,351.772705 1613.865112,350.761871 1614.985229,349.684601 
	C1634.321411,331.089478 1653.611450,312.445770 1673.051147,293.959320 
	C1674.656738,292.432312 1677.254639,291.153473 1679.409546,291.125153 
	C1696.736084,290.897339 1714.067139,290.997650 1732.623779,290.997650 
	C1708.885132,315.084686 1685.767456,338.541656 1662.432251,362.219482 
	C1687.072632,396.324951 1711.568237,430.230103 1736.451294,464.671539 
	C1734.704712,464.810211 1733.495117,464.988281 1732.285156,464.989868 
	C1717.621338,465.009155 1702.956055,464.896667 1688.294678,465.085205 
	C1685.088379,465.126373 1683.234009,464.167358 1681.418579,461.507141 
	C1665.761597,438.564270 1649.940674,415.733215 1634.166260,392.870544 
	C1633.243408,391.532959 1632.298828,390.210449 1631.082031,388.479431 
	C1624.597778,394.690430 1618.278931,400.555511 1612.246216,406.701263 
	C1611.208008,407.758728 1611.061523,410.008179 1611.052490,411.709961 
	C1610.967529,427.706451 1611.001953,443.703552 1611.002075,459.700500 
	C1611.002075,461.331421 1611.002197,462.962372 1611.002197,464.787476 
	C1594.374390,464.787476 1578.109253,464.787476 1561.216553,464.787476 
	C1561.216553,412.677551 1561.216553,360.588715 1561.216553,307.999847 
z"/>
<path fill="#010101" opacity="1.000000" stroke="none" 
	d="
M2150.067871,451.923004 
	C2152.962402,456.012451 2155.679688,459.790955 2158.383057,463.579468 
	C2158.552734,463.817322 2158.613281,464.133240 2158.958984,465.001404 
	C2154.005859,465.001404 2149.281982,465.001373 2144.557861,465.001373 
	C2133.226562,465.001373 2121.894043,464.906860 2110.565186,465.068085 
	C2107.744385,465.108215 2106.125977,464.195648 2104.530518,461.862274 
	C2088.757080,438.796356 2072.849365,415.822449 2056.970215,392.828949 
	C2056.042725,391.486053 2055.036377,390.197571 2053.817139,388.545135 
	C2047.366089,394.730347 2041.054199,400.590454 2035.035522,406.737579 
	C2034.007935,407.787140 2033.934814,410.062866 2033.927368,411.774353 
	C2033.851929,429.266296 2033.881226,446.758667 2033.881226,464.626160 
	C2017.464722,464.626160 2001.072876,464.626160 1984.362061,464.626160 
	C1984.362061,382.599152 1984.362061,300.386200 1984.362061,217.904785 
	C2000.754761,217.904785 2017.135620,217.904785 2033.858398,217.904785 
	C2033.858398,262.786346 2033.858398,307.550079 2033.858398,353.254547 
	C2035.517700,351.766815 2036.567993,350.881470 2037.555786,349.931122 
	C2057.128174,331.101746 2076.657227,312.226593 2096.333984,293.506989 
	C2097.805664,292.106903 2100.318604,291.127747 2102.359863,291.105682 
	C2119.687500,290.918396 2137.018066,290.998596 2155.420410,290.998596 
	C2131.739014,315.023254 2108.602295,338.495514 2085.215576,362.221283 
	C2106.867188,392.149261 2128.377441,421.881805 2150.067871,451.923004 
z"/>
<path fill="#010101" opacity="1.000000" stroke="none" 
	d="
M1900.538086,294.432526 
	C1923.857910,303.053864 1938.163940,319.623505 1944.968384,342.703430 
	C1952.067261,366.782196 1951.959717,391.152618 1944.538208,415.063812 
	C1936.076294,442.327301 1917.109497,458.931152 1889.309814,465.003418 
	C1865.558105,470.191467 1841.693115,470.292694 1818.059937,464.109375 
	C1787.762939,456.182556 1770.304932,435.992523 1763.862671,405.870697 
	C1759.297607,384.525848 1759.558228,363.186218 1765.953247,342.201813 
	C1773.711304,316.744659 1790.266846,299.612701 1816.046631,292.570679 
	C1844.133911,284.898407 1872.310791,285.314850 1900.538086,294.432526 
M1880.942993,334.399719 
	C1868.797729,328.895935 1855.965210,328.570404 1843.210327,330.566071 
	C1824.030273,333.567017 1816.185913,341.650360 1812.626221,360.804657 
	C1810.255615,373.560181 1810.588623,386.363159 1813.302002,399.036102 
	C1816.370483,413.366394 1825.075439,422.753265 1839.647949,424.713440 
	C1849.414429,426.027130 1859.622070,426.169983 1869.386719,424.919037 
	C1886.124390,422.774811 1894.672852,413.896698 1897.859131,397.346130 
	C1900.338867,384.465668 1900.346313,371.462891 1897.822876,358.592133 
	C1895.836914,348.461395 1891.564209,339.608307 1880.942993,334.399719 
z"/>
<path fill="#020202" opacity="1.000000" stroke="none" 
	d="
M1200.079346,367.028931 
	C1214.640503,359.691864 1230.005615,358.269440 1245.569702,358.129486 
	C1261.878418,357.982849 1278.189331,358.096710 1294.431763,358.096710 
	C1298.459595,339.182373 1288.627563,327.105957 1267.837158,325.002808 
	C1243.151978,322.505646 1218.994385,324.994965 1195.368530,332.596619 
	C1194.756470,332.793549 1194.104980,332.867737 1193.178223,333.060120 
	C1193.178223,321.425446 1193.178223,310.006897 1193.178223,298.307983 
	C1208.219604,292.497040 1224.036621,289.521454 1240.110962,288.216980 
	C1258.075195,286.759094 1276.097046,286.521423 1293.764282,291.049316 
	C1312.338135,295.809509 1328.178467,304.432892 1336.630371,322.881073 
	C1341.235107,332.932251 1342.544434,343.679260 1342.595581,354.547821 
	C1342.765991,390.708710 1342.729126,426.870575 1342.760620,463.032043 
	C1342.760986,463.502625 1342.614380,463.973328 1342.491089,464.716858 
	C1328.211792,464.716858 1313.989746,464.716858 1299.583618,464.716858 
	C1298.697876,459.768127 1297.836670,454.957153 1296.907471,449.766296 
	C1273.105225,468.029449 1246.361206,471.513489 1218.372070,466.920349 
	C1197.380859,463.475586 1180.568237,452.777649 1174.310791,431.293030 
	C1167.344238,407.373291 1174.072876,381.163147 1200.079346,367.028931 
M1248.538452,389.033691 
	C1243.738647,389.388611 1238.866699,389.339447 1234.153320,390.179108 
	C1222.887695,392.185913 1216.579102,399.797516 1216.057617,411.328522 
	C1215.519653,423.219391 1220.640137,431.097504 1232.087646,433.867065 
	C1238.614014,435.446075 1245.586060,435.966522 1252.318604,435.751587 
	C1267.577637,435.264496 1281.306274,430.316040 1292.448120,419.429474 
	C1293.569092,418.334229 1294.983765,416.810516 1295.019897,415.452545 
	C1295.252319,406.713043 1295.138672,397.964355 1295.138672,389.033661 
	C1279.458008,389.033661 1264.492920,389.033661 1248.538452,389.033691 
z"/>
<path fill="#020202" opacity="1.000000" stroke="none" 
	d="
M1378.424683,406.516541 
	C1374.595947,388.291534 1374.349854,370.465668 1377.867676,352.549225 
	C1383.253174,325.120148 1399.148804,305.951172 1424.870483,296.176392 
	C1459.025146,283.196869 1493.595337,284.024017 1527.757202,297.241608 
	C1528.519409,297.536438 1529.222290,297.984680 1530.063965,298.418701 
	C1530.063965,310.064392 1530.063965,321.710938 1530.063965,332.664948 
	C1519.907471,330.276154 1509.777100,327.164490 1499.413086,325.633057 
	C1485.190918,323.531525 1470.895630,323.836395 1456.830444,327.814880 
	C1439.386963,332.748901 1428.991821,344.095551 1427.173096,361.973267 
	C1426.055176,372.963196 1425.947388,384.318359 1427.381958,395.247589 
	C1429.914062,414.539948 1443.275513,426.823547 1463.388550,429.944885 
	C1485.725464,433.411346 1507.520020,431.630829 1528.354980,422.165466 
	C1528.921753,421.907959 1529.598877,421.892975 1530.632324,421.681396 
	C1530.632324,433.394043 1530.735596,444.812531 1530.469238,456.222382 
	C1530.443115,457.337463 1528.316650,458.849640 1526.867310,459.417725 
	C1507.960205,466.828125 1488.197021,469.010498 1468.069336,468.552399 
	C1451.993286,468.186493 1436.204224,466.093079 1421.356689,459.404755 
	C1398.357300,449.044250 1384.396851,431.279083 1378.424683,406.516541 
z"/>
<path fill="#F5F4FB" opacity="1.000000" stroke="none" 
	d="
M589.226318,263.313293 
	C561.876831,334.383240 534.662170,405.088531 507.439545,475.790771 
	C504.904083,482.375824 502.656708,483.884247 495.579651,483.884399 
	C469.082397,483.884979 442.585175,483.891876 416.087921,483.880402 
	C410.467834,483.877960 408.381653,480.772156 410.437378,475.429779 
	C443.324768,389.964355 476.222076,304.502777 509.119995,219.041428 
	C515.638916,202.106720 522.224304,185.197296 528.659790,168.230988 
	C530.422607,163.583557 533.567810,161.556458 538.440308,161.564392 
	C565.604004,161.608643 592.767944,161.576111 619.931763,161.592957 
	C626.565979,161.597076 627.785645,163.348175 625.498047,169.273193 
	C613.443848,200.495010 601.403931,231.722351 589.226318,263.313293 
M462.500000,477.996613 
	C473.662598,477.996735 484.828552,477.843781 495.985809,478.087769 
	C499.450226,478.163544 500.886108,476.949585 502.065613,473.808502 
	C509.146240,454.951965 516.454834,436.181030 523.692932,417.383667 
	C555.033875,335.990936 586.378174,254.599564 617.709229,173.203064 
	C618.335083,171.577164 618.815369,169.895218 619.438049,168.014648 
	C618.155579,167.794159 617.514709,167.588104 616.873718,167.587585 
	C590.717041,167.565979 564.560059,167.624969 538.404175,167.482864 
	C534.933105,167.464035 534.367615,169.644669 533.470093,171.976242 
	C497.470917,265.493958 461.463257,359.008362 425.464600,452.526276 
	C422.266815,460.833435 419.122253,469.161102 415.755829,477.996613 
	C431.537323,477.996613 446.518646,477.996613 462.500000,477.996613 
z"/>
<path fill="#F2F1F8" opacity="1.000000" stroke="none" 
	d="
M360.503967,431.720856 
	C360.161346,439.818817 358.834717,441.138733 351.238739,441.140442 
	C303.098022,441.151245 254.957275,441.150726 206.816544,441.141266 
	C198.998047,441.139740 197.520981,439.631958 197.464813,431.784576 
	C197.368103,418.271912 197.528000,418.110260 210.999832,418.110199 
	C256.475342,418.110077 301.950836,418.110168 347.426331,418.109833 
	C360.246765,418.109741 360.496918,418.361176 360.503967,431.720856 
M263.499969,435.312805 
	C293.737091,435.312805 323.974213,435.312805 354.287720,435.312805 
	C354.287720,431.176788 354.287720,427.891846 354.287720,424.420013 
	C303.884552,424.420013 253.730270,424.420013 203.656769,424.420013 
	C203.656769,428.240295 203.656769,431.618561 203.656769,435.313141 
	C223.554672,435.313141 243.027313,435.313141 263.499969,435.312805 
z"/>
<path fill="#F3F2F9" opacity="1.000000" stroke="none" 
	d="
M198.528717,299.634796 
	C200.820129,298.493713 202.889023,297.010864 204.961823,297.005402 
	C254.263397,296.875793 303.565399,296.893280 352.867310,296.921783 
	C358.232513,296.924866 360.339813,298.765411 360.436981,303.964325 
	C360.710724,318.617462 361.369598,320.094604 345.615692,320.018188 
	C299.646088,319.795135 253.674698,319.940643 207.703995,319.937469 
	C198.930634,319.936859 197.413605,318.509735 197.510941,309.866272 
	C197.548080,306.568695 198.029251,303.276123 198.528717,299.634796 
M329.500000,302.780792 
	C287.584961,302.780792 245.669922,302.780792 203.555420,302.780792 
	C203.555420,306.756531 203.555420,310.148682 203.555420,313.749542 
	C253.921967,313.749542 303.957794,313.749542 354.204102,313.749542 
	C354.204102,310.058350 354.204102,306.674988 354.204102,302.780609 
	C346.082703,302.780609 338.291351,302.780609 329.500000,302.780792 
z"/>
<path fill="#F8F7FC" opacity="1.000000" stroke="none" 
	d="
M236.000137,539.447754 
	C274.632355,539.448730 312.764587,539.444031 350.896790,539.454468 
	C359.028290,539.456726 360.416962,540.884521 360.461731,549.115173 
	C360.468048,550.280762 360.473145,551.446533 360.461761,552.612000 
	C360.384796,560.491211 358.910889,561.998718 351.150085,562.000000 
	C303.026886,562.007812 254.903717,562.008240 206.780533,562.001709 
	C198.999969,562.000610 197.547241,560.509705 197.503922,552.624207 
	C197.432907,539.694885 197.677628,539.447205 210.522736,539.447388 
	C218.848526,539.447449 227.174332,539.447449 236.000137,539.447754 
M354.738708,549.692566 
	C354.612579,548.267883 354.486450,546.843262 354.368042,545.505859 
	C303.773010,545.505859 253.701859,545.505859 203.459473,545.505859 
	C203.459473,549.090149 203.459473,552.340515 203.459473,555.822144 
	C253.910324,555.822144 304.098572,555.822144 354.738312,555.822144 
	C354.738312,553.856079 354.738312,552.224487 354.738708,549.692566 
z"/>
<path fill="#F6F5FA" opacity="1.000000" stroke="none" 
	d="
M427.000244,500.092346 
	C437.807709,500.092377 448.115234,500.092377 458.656036,500.092377 
	C459.406189,501.711884 460.144043,503.304871 461.100922,505.370697 
	C451.192352,516.270447 441.164612,527.311646 431.124237,538.341309 
	C426.424957,543.503662 421.601044,548.556702 417.024841,553.825378 
	C414.128418,557.160156 410.610443,558.485046 406.325562,558.472534 
	C399.177155,558.451782 392.026794,558.650879 384.880798,558.537537 
	C383.031616,558.508179 381.195404,557.661316 378.823944,557.054565 
	C387.337982,537.381836 395.558441,518.387390 403.476227,500.092316 
	C411.603943,500.092316 419.052094,500.092316 427.000244,500.092346 
M438.482544,505.953094 
	C429.332886,505.952789 420.181763,506.043030 411.034485,505.895966 
	C408.352203,505.852875 406.910461,506.566284 405.804657,509.206696 
	C400.283173,522.390381 394.504364,535.466187 388.850922,548.594971 
	C388.362274,549.729736 388.127747,550.973938 387.605591,552.741211 
	C394.331360,552.741211 400.462097,552.960876 406.561157,552.617920 
	C408.600616,552.503296 411.075592,551.442627 412.470245,549.976196 
	C420.834076,541.182190 428.957916,532.159180 437.127716,523.181641 
	C442.080811,517.738831 446.971710,512.239563 452.620789,505.952972 
	C447.380127,505.952972 443.426819,505.952972 438.482544,505.953094 
z"/>
<path fill="#F4F3FA" opacity="1.000000" stroke="none" 
	d="
M166.469025,418.287292 
	C173.454758,420.974823 176.568710,425.360901 175.841187,430.998535 
	C175.073898,436.944397 170.109528,441.217346 164.134384,441.074890 
	C158.415878,440.938568 153.579025,436.500763 153.043716,430.899261 
	C152.478256,424.982330 156.349518,419.552582 162.106155,418.362915 
	C163.384781,418.098694 164.751389,418.260010 166.469025,418.287292 
M170.091492,429.541260 
	C169.496841,425.292175 166.821365,422.952423 162.941254,424.431946 
	C161.076508,425.143005 159.454681,428.520660 159.264893,430.818115 
	C159.154633,432.152954 161.895386,434.588501 163.716293,435.029419 
	C167.042404,435.834778 169.313477,433.794067 170.091492,429.541260 
z"/>
<path fill="#F4F3FA" opacity="1.000000" stroke="none" 
	d="
M155.431671,315.399536 
	C152.232559,310.610199 152.012863,306.038940 155.186508,301.621582 
	C158.099869,297.566559 162.298279,296.101898 167.066101,297.193787 
	C171.638382,298.240875 174.573349,301.321381 175.648239,305.963013 
	C176.758606,310.757843 174.434418,315.845459 170.110153,318.277435 
	C165.175568,321.052704 160.697433,320.251862 155.431671,315.399536 
M168.094254,312.629181 
	C171.137009,308.055328 170.191635,303.572937 165.768600,303.096344 
	C163.856888,302.890350 160.932816,303.933258 159.965515,305.397583 
	C158.996246,306.864929 159.194534,309.951813 160.128891,311.637024 
	C161.676880,314.428864 164.581711,314.716003 168.094254,312.629181 
z"/>
<path fill="#F5F4FA" opacity="1.000000" stroke="none" 
	d="
M175.868134,551.727783 
	C173.798843,559.141052 169.245621,562.615112 162.985397,561.927063 
	C157.774063,561.354309 153.430115,556.911499 153.029495,551.744507 
	C152.538986,545.418396 157.136459,540.038025 163.479736,539.514526 
	C170.281998,538.953186 175.153000,543.584534 175.868134,551.727783 
M160.729156,554.842896 
	C165.299713,556.841492 168.586548,556.073914 169.724640,552.547241 
	C170.826996,549.131287 169.420578,546.436829 166.090149,545.674255 
	C164.346558,545.274963 161.121170,546.001465 160.514313,547.203613 
	C159.541443,549.130737 160.187912,551.875305 160.729156,554.842896 
z"/>
<path fill="#FEFEFE" opacity="1.000000" stroke="none" 
	d="
M1881.263184,334.598938 
	C1891.564209,339.608307 1895.836914,348.461395 1897.822876,358.592133 
	C1900.346313,371.462891 1900.338867,384.465668 1897.859131,397.346130 
	C1894.672852,413.896698 1886.124390,422.774811 1869.386719,424.919037 
	C1859.622070,426.169983 1849.414429,426.027130 1839.647949,424.713440 
	C1825.075439,422.753265 1816.370483,413.366394 1813.302002,399.036102 
	C1810.588623,386.363159 1810.255615,373.560181 1812.626221,360.804657 
	C1816.185913,341.650360 1824.030273,333.567017 1843.210327,330.566071 
	C1855.965210,328.570404 1868.797729,328.895935 1881.263184,334.598938 
z"/>
<path fill="#FDFDFD" opacity="1.000000" stroke="none" 
	d="
M1249.033081,389.033691 
	C1264.492920,389.033661 1279.458008,389.033661 1295.138672,389.033661 
	C1295.138672,397.964355 1295.252319,406.713043 1295.019897,415.452545 
	C1294.983765,416.810516 1293.569092,418.334229 1292.448120,419.429474 
	C1281.306274,430.316040 1267.577637,435.264496 1252.318604,435.751587 
	C1245.586060,435.966522 1238.614014,435.446075 1232.087646,433.867065 
	C1220.640137,431.097504 1215.519653,423.219391 1216.057617,411.328522 
	C1216.579102,399.797516 1222.887695,392.185913 1234.153320,390.179108 
	C1238.866699,389.339447 1243.738647,389.388611 1249.033081,389.033691 
z"/>
<path fill="#5243D9" opacity="1.000000" stroke="none" 
	d="
M462.000000,477.996613 
	C446.518646,477.996613 431.537323,477.996613 415.755829,477.996613 
	C419.122253,469.161102 422.266815,460.833435 425.464600,452.526276 
	C461.463257,359.008362 497.470917,265.493958 533.470093,171.976242 
	C534.367615,169.644669 534.933105,167.464035 538.404175,167.482864 
	C564.560059,167.624969 590.717041,167.565979 616.873718,167.587585 
	C617.514709,167.588104 618.155579,167.794159 619.438049,168.014648 
	C618.815369,169.895218 618.335083,171.577164 617.709229,173.203064 
	C586.378174,254.599564 555.033875,335.990936 523.692932,417.383667 
	C516.454834,436.181030 509.146240,454.951965 502.065613,473.808502 
	C500.886108,476.949585 499.450226,478.163544 495.985809,478.087769 
	C484.828552,477.843781 473.662598,477.996735 462.000000,477.996613 
z"/>
<path fill="#5344D7" opacity="1.000000" stroke="none" 
	d="
M262.999939,435.312988 
	C243.027313,435.313141 223.554672,435.313141 203.656769,435.313141 
	C203.656769,431.618561 203.656769,428.240295 203.656769,424.420013 
	C253.730270,424.420013 303.884552,424.420013 354.287720,424.420013 
	C354.287720,427.891846 354.287720,431.176788 354.287720,435.312805 
	C323.974213,435.312805 293.737091,435.312805 262.999939,435.312988 
z"/>
<path fill="#5344D7" opacity="1.000000" stroke="none" 
	d="
M330.000000,302.780701 
	C338.291351,302.780609 346.082703,302.780609 354.204102,302.780609 
	C354.204102,306.674988 354.204102,310.058350 354.204102,313.749542 
	C303.957794,313.749542 253.921967,313.749542 203.555420,313.749542 
	C203.555420,310.148682 203.555420,306.756531 203.555420,302.780792 
	C245.669922,302.780792 287.584961,302.780792 330.000000,302.780701 
z"/>
<path fill="#5647D8" opacity="1.000000" stroke="none" 
	d="
M354.738525,550.142700 
	C354.738312,552.224487 354.738312,553.856079 354.738312,555.822144 
	C304.098572,555.822144 253.910324,555.822144 203.459473,555.822144 
	C203.459473,552.340515 203.459473,549.090149 203.459473,545.505859 
	C253.701859,545.505859 303.773010,545.505859 354.368042,545.505859 
	C354.486450,546.843262 354.612579,548.267883 354.738525,550.142700 
z"/>
<path fill="#5445D8" opacity="1.000000" stroke="none" 
	d="
M438.978027,505.953033 
	C443.426819,505.952972 447.380127,505.952972 452.620789,505.952972 
	C446.971710,512.239563 442.080811,517.738831 437.127716,523.181641 
	C428.957916,532.159180 420.834076,541.182190 412.470245,549.976196 
	C411.075592,551.442627 408.600616,552.503296 406.561157,552.617920 
	C400.462097,552.960876 394.331360,552.741211 387.605591,552.741211 
	C388.127747,550.973938 388.362274,549.729736 388.850922,548.594971 
	C394.504364,535.466187 400.283173,522.390381 405.804657,509.206696 
	C406.910461,506.566284 408.352203,505.852875 411.034485,505.895966 
	C420.181763,506.043030 429.332886,505.952789 438.978027,505.953033 
z"/>
<path fill="#594BD7" opacity="1.000000" stroke="none" 
	d="
M170.066193,429.943298 
	C169.313477,433.794067 167.042404,435.834778 163.716293,435.029419 
	C161.895386,434.588501 159.154633,432.152954 159.264893,430.818115 
	C159.454681,428.520660 161.076508,425.143005 162.941254,424.431946 
	C166.821365,422.952423 169.496841,425.292175 170.066193,429.943298 
z"/>
<path fill="#584AD7" opacity="1.000000" stroke="none" 
	d="
M167.775665,312.861023 
	C164.581711,314.716003 161.676880,314.428864 160.128891,311.637024 
	C159.194534,309.951813 158.996246,306.864929 159.965515,305.397583 
	C160.932816,303.933258 163.856888,302.890350 165.768600,303.096344 
	C170.191635,303.572937 171.137009,308.055328 167.775665,312.861023 
z"/>
<path fill="#5A4CD7" opacity="1.000000" stroke="none" 
	d="
M160.439575,554.558655 
	C160.187912,551.875305 159.541443,549.130737 160.514313,547.203613 
	C161.121170,546.001465 164.346558,545.274963 166.090149,545.674255 
	C169.420578,546.436829 170.826996,549.131287 169.724640,552.547241 
	C168.586548,556.073914 165.299713,556.841492 160.439575,554.558655 
z"/>
</svg>