<svg id="Icon" viewBox="0 0 24 24" xmlns="http://www.w3.org/2000/svg"><path d="m3 21.75c-.057 0-.114-.007-.172-.021-.339-.079-.578-.382-.578-.729v-4.292c0-5.613 4.445-10.208 10-10.448v-2.158c0-.497.281-.934.733-1.139.454-.204.967-.129 1.34.198l6.741 5.898c.271.237.427.58.427.94s-.155.703-.427.94l-6.741 5.898c-.373.327-.886.402-1.34.198-.452-.205-.733-.642-.733-1.139v-2.118c-3.11.256-5.849 2.093-7.263 4.921l-1.316 2.634c-.129.259-.392.415-.671.415zm9.708-14c-4.939 0-8.958 4.019-8.958 8.958v1.119c1.816-3.446 5.339-5.577 9.25-5.577.414 0 .75.336.75.75v2.347l6.111-5.347-6.111-5.347v2.347c0 .414-.336.75-.75.75z" fill="#112d55"/></svg>